0
SECTION
2
HEADER
9
$INSUNITS
70
4
9
$ACADVER
1
AC1014
9
$HANDSEED
5
FFFF
0
ENDSEC
0
SECTION
2
TABLES
0
TABLE
2
VPORT
5
8
100
AcDbSymbolTable
0
ENDTAB
0
TABLE
2
LTYPE
5
5
100
AcDbSymbolTable
0
LTYPE
5
14
100
AcDbSymbolTableRecord
100
AcDbLinetypeTableRecord
2
BYBLOCK
70
0
0
LTYPE
5
15
100
AcDbSymbolTableRecord
100
AcDbLinetypeTableRecord
2
BYLAYER
70
0
0
LTYPE
5
16
100
AcDbSymbolTableRecord
100
AcDbLinetypeTableRecord
2
DASHED
70
0
3
Dashed __ __ __ __ __ __ __ __ __ __ __ __ __ _
72
65
73
2
40
0.75
49
0.5
74
0
49
-0.25
74
0
0
ENDTAB
0
TABLE
2
LAYER
5
2
100
AcDbSymbolTable
70
2
0
LAYER
5
50
100
AcDbSymbolTableRecord
100
AcDbLayerTableRecord
2
0
70
0
62
7
6
CONTINUOUS
0
ENDTAB
0
TABLE
2
STYLE
5
3
100
AcDbSymbolTable
70
1
0
STYLE
5
11
100
AcDbSymbolTableRecord
100
AcDbTextStyleTableRecord
2
STANDARD
70
0
0
ENDTAB
0
TABLE
2
VIEW
5
6
100
AcDbSymbolTable
70
0
0
ENDTAB
0
TABLE
2
UCS
5
7
100
AcDbSymbolTable
70
0
0
ENDTAB
0
TABLE
2
APPID
5
9
100
AcDbSymbolTable
70
2
0
APPID
5
12
100
AcDbSymbolTableRecord
100
AcDbRegAppTableRecord
2
ACAD
70
0
0
ENDTAB
0
TABLE
2
DIMSTYLE
5
A
100
AcDbSymbolTable
70
1
0
ENDTAB
0
TABLE
2
BLOCK_RECORD
5
1
100
AcDbSymbolTable
70
1
0
BLOCK_RECORD
5
1F
100
AcDbSymbolTableRecord
100
AcDbBlockTableRecord
2
*MODEL_SPACE
0
BLOCK_RECORD
5
1B
100
AcDbSymbolTableRecord
100
AcDbBlockTableRecord
2
*PAPER_SPACE
0
ENDTAB
0
ENDSEC
0
SECTION
2
BLOCKS
0
BLOCK
5
20
100
AcDbEntity
100
AcDbBlockBegin
2
*MODEL_SPACE
0
ENDBLK
5
21
100
AcDbEntity
100
AcDbBlockEnd
0
BLOCK
5
1C
100
AcDbEntity
100
AcDbBlockBegin
2
*PAPER_SPACE
0
ENDBLK
5
1D
100
AcDbEntity
100
AcDbBlockEnd
0
ENDSEC
0
SECTION
2
ENTITIES
0
LINE
5
100
100
AcDbEntity
8
0
100
AcDbLine
10
-131.42877831886679
20
144.63152224389654
30
0
11
-131.42877831886679
21
144.63152224389654
31
0
0
CIRCLE
5
101
100
AcDbEntity
8
0
100
AcDbCircle
10
44.261939271890697
20
-30.231281090343
30
0
40
1
210
-0
220
0
230
1
0
CIRCLE
5
102
100
AcDbEntity
8
0
100
AcDbCircle
10
44.261929122069446
20
-34.731281090331564
30
0
40
2
210
-0
220
0
230
1
0
SPLINE
5
103
100
AcDbEntity
8
0
100
AcDbSpline
70
4
71
5
72
36
73
30
74
0
42
0.000000001
43
0.0000000001
44
0.0000000001
40
0
40
0
40
0
40
0
40
0
40
0
40
0.040000000000000001
40
0.080000000000000002
40
0.12
40
0.16
40
0.20000000000000001
40
0.23999999999999999
40
0.28000000000000003
40
0.32000000000000001
40
0.35999999999999999
40
0.40000000000000002
40
0.44
40
0.47999999999999993
40
0.51999999999999991
40
0.56000000000000005
40
0.59999999999999998
40
0.64000000000000001
40
0.68000000000000005
40
0.72000000000000008
40
0.76000000000000023
40
0.80000000000000016
40
0.8400000000000003
40
0.88000000000000023
40
0.92000000000000015
40
0.96000000000000041
40
1
40
1
40
1
40
1
40
1
40
1
41
1
41
1
41
1
41
1
41
1
41
1
41
1
41
1
41
1
41
1
41
1
41
1
41
1
41
1
41
1
41
1
41
1
41
1
41
1
41
1
41
1
41
1
41
1
41
1
41
1
41
1
41
1
41
1
41
1
41
1
10
52.815397245092385
20
-43.284749213354495
30
0
10
52.924976002942579
20
-43.167781244706276
30
0
10
53.122555081229009
20
-42.903755310112182
30
0
10
53.354188346770343
20
-42.417446077590739
30
0
10
53.537205088288914
20
-41.60194368769762
30
0
10
53.578126595213448
20
-40.38279283874158
30
0
10
53.460579287535936
20
-39.06615468672247
30
0
10
53.216232221477298
20
-37.75620099913499
30
0
10
52.874130738515902
20
-36.538312096779435
30
0
10
52.455157673323249
20
-35.455737882093004
30
0
10
51.974574528047569
20
-34.517403631573359
30
0
10
51.445368037319227
20
-33.708600740297463
30
0
10
50.881298960244919
20
-33.00029824734154
30
0
10
50.300110012773764
20
-32.358800705806189
30
0
10
49.726683750262985
20
-31.75508451291136
30
0
10
49.183584847630506
20
-31.163631779914326
30
0
10
48.681710546785979
20
-30.561284016404645
30
0
10
48.210631783555584
20
-29.926117565528276
30
0
10
47.729235283671244
20
-29.236332917750836
30
0
10
47.174617370112557
20
-28.484074452275664
30
0
10
46.472190666640586
20
-27.688498651964117
30
0
10
45.542267036911532
20
-26.910669224085897
30
0
10
44.312537100085038
20
-26.269115660273702
30
0
10
42.835788996471095
20
-25.761348120925504
30
0
10
41.227003239900242
20
-25.328859658479175
30
0
10
39.639387405390707
20
-24.872238351808107
30
0
10
38.508350436342234
20
-24.402697491014244
30
0
10
37.792212915828323
20
-23.952678637004713
30
0
10
37.380379170266274
20
-23.604045644570299
30
0
10
37.190861310203985
20
-23.417572591346829
30
0
0
CIRCLE
5
104
100
AcDbEntity
8
0
100
AcDbCircle
10
18.031222920256855
20
-4.4703489798791907e-08
30
0
40
1
210
-0
220
0
230
1
0
CIRCLE
5
105
100
AcDbEntity
8
0
100
AcDbCircle
10
-5.3290705182007514e-14
20
-18.031222964960381
30
0
40
1
210
-0
220
0
230
1
0
LINE
5
106
100
AcDbEntity
8
0
100
AcDbLine
10
7.5000000004707879
20
-22.431846891165499
30
0
11
7.5000000004532374
21
-28.031239875178301
31
0
0
SPLINE
5
107
100
AcDbEntity
8
0
100
AcDbSpline
70
4
71
5
72
21
73
15
74
0
42
0.000000001
43
0.0000000001
44
0.0000000001
40
0
40
0
40
0
40
0
40
0
40
0
40
0.10000000000000001
40
0.20000000000000001
40
0.30000000000000004
40
0.40000000000000002
40
0.5
40
0.59999999999999998
40
0.69999999999999996
40
0.79999999999999982
40
0.8999999999999998
40
1
40
1
40
1
40
1
40
1
40
1
41
1
41
1
41
1
41
1
41
1
41
1
41
1
41
1
41
1
41
1
41
1
41
1
41
1
41
1
41
1
10
48.190364236964065
20
-38.659716205226175
30
0
10
48.315728169371539
20
-38.534352272818701
30
0
10
48.570235458534938
20
-38.296599999920353
30
0
10
48.963220714330191
20
-37.978897473938865
30
0
10
49.492548641679676
20
-37.642186325309211
30
0
10
50.074906615792081
20
-37.41444190964279
30
0
10
50.509452092013127
20
-37.434201648228992
30
0
10
50.76290042268441
20
-37.739285071055072
30
0
10
50.976223439105169
20
-38.326430390693993
30
0
10
51.185521482527093
20
-39.109881932936084
30
0
10
51.31952836030267
20
-39.963792829709007
30
0
10
51.28097706454264
20
-40.59632452767319
30
0
10
51.1219776965997
20
-40.993400260289725
30
0
10
50.951121048307982
20
-41.217173484479524
30
0
10
50.849471282262698
20
-41.318823250524808
30
0
0
CIRCLE
5
108
100
AcDbEntity
8
0
100
AcDbCircle
10
39.7619291220809
20
-34.731270940510271
30
0
40
1
210
-0
220
0
230
1
0
CIRCLE
5
109
100
AcDbEntity
8
0
100
AcDbCircle
10
44.261918972248182
20
-39.231281090320095
30
0
40
1
210
-0
220
0
230
1
0
CIRCLE
5
110
100
AcDbEntity
8
0
100
AcDbCircle
10
48.761929122057985
20
-34.731291240152814
30
0
40
1
210
-0
220
0
230
1
0
CIRCLE
5
111
100
AcDbEntity
8
0
100
AcDbCircle
10
5.0000000000044587
20
-28.031222964952441
30
0
40
1.0000000000000009
210
-0
220
0
230
1
0
CIRCLE
5
112
100
AcDbEntity
8
0
100
AcDbCircle
10
-1.7763568394002505e-14
20
18.031222875553429
30
0
40
1
210
-0
220
0
230
1
0
CIRCLE
5
113
100
AcDbEntity
8
0
100
AcDbCircle
10
-1.7763568394002505e-14
20
18.031222875553464
30
0
40
1
210
-0
220
0
230
1
0
CIRCLE
5
114
100
AcDbEntity
8
0
100
AcDbCircle
10
-4.9999999999977263
20
-28.031222964958037
30
0
40
1.0000000000000009
210
-0
220
0
230
1
0
CIRCLE
5
115
100
AcDbEntity
8
0
100
AcDbCircle
10
-5.3290705182007514e-14
20
-18.031222964960381
30
0
40
1
210
-0
220
0
230
1
0
LINE
5
116
100
AcDbEntity
8
0
100
AcDbLine
10
-7.5000000004708767
20
-22.431846891165463
30
0
11
-7.5000000004533263
21
-28.031239875178301
31
0
0
CIRCLE
5
117
100
AcDbEntity
8
0
100
AcDbCircle
10
7.7499999999999325
20
21.031222875553425
30
0
40
1
210
-0
220
0
230
1
0
CIRCLE
5
118
100
AcDbEntity
8
0
100
AcDbCircle
10
-7.7499999999999858
20
21.031222875553407
30
0
40
1
210
-0
220
0
230
1
0
ARC
5
119
100
AcDbEntity
8
0
100
AcDbCircle
10
-18.031222236225837
20
-4.4703436508086725e-08
30
0
40
2.2500066919242094
210
-0
220
0
230
1
100
AcDbArc
50
-0.001884730415114609
51
0.0016517398081716218
0
CIRCLE
5
120
100
AcDbEntity
8
0
100
AcDbCircle
10
-18.031222920256944
20
-4.4703472035223513e-08
30
0
40
1
210
-0
220
0
230
1
0
LINE
5
121
100
AcDbEntity
8
0
100
AcDbLine
10
-5.0000507924995929
20
-30.531222964949492
30
0
11
4.999885220429956
21
-30.531222962777566
31
0
0
ARC
5
122
100
AcDbEntity
8
0
100
AcDbCircle
10
-4.9999999999954881
20
-28.031222964949688
30
0
40
2.5000000005150289
210
0
220
0
230
1
100
AcDbArc
50
180.00038755305286
51
269.99883592155373
0
ARC
5
123
100
AcDbEntity
8
0
100
AcDbCircle
10
5.0000000000243183
20
-28.031222964925831
30
0
40
2.5000000004866068
210
0
220
0
230
1
100
AcDbArc
50
269.99736944546714
51
359.99961244600678
0
SPLINE
5
124
100
AcDbEntity
8
0
100
AcDbSpline
70
4
71
5
72
36
73
30
74
0
42
0.000000001
43
0.0000000001
44
0.0000000001
40
0
40
0
40
0
40
0
40
0
40
0
40
0.040000000000000001
40
0.080000000000000002
40
0.12
40
0.16
40
0.20000000000000001
40
0.23999999999999999
40
0.28000000000000003
40
0.32000000000000001
40
0.35999999999999999
40
0.40000000000000002
40
0.44
40
0.47999999999999993
40
0.51999999999999991
40
0.56000000000000005
40
0.59999999999999998
40
0.64000000000000001
40
0.68000000000000005
40
0.72000000000000008
40
0.76000000000000023
40
0.80000000000000016
40
0.8400000000000003
40
0.88000000000000023
40
0.92000000000000015
40
0.96000000000000041
40
1
40
1
40
1
40
1
40
1
40
1
41
1
41
1
41
1
41
1
41
1
41
1
41
1
41
1
41
1
41
1
41
1
41
1
41
1
41
1
41
1
41
1
41
1
41
1
41
1
41
1
41
1
41
1
41
1
41
1
41
1
41
1
41
1
41
1
41
1
41
1
10
52.815397245092385
20
-43.284749213354495
30
0
10
52.698429276444173
20
-43.394327971204675
30
0
10
52.434403341850043
20
-43.591907049491084
30
0
10
51.948094109328565
20
-43.823540315032417
30
0
10
51.132591719435396
20
-44.006557056551003
30
0
10
49.913440870479349
20
-44.047478563475515
30
0
10
48.596802718460296
20
-43.929931255797989
30
0
10
47.286849030872915
20
-43.68558418973943
30
0
10
46.068960128517418
20
-43.343482706778083
30
0
10
44.986385913831043
20
-42.924509641585416
30
0
10
44.048051663311384
20
-42.443926496309757
30
0
10
43.239248772035417
20
-41.914720005581394
30
0
10
42.530946279079402
20
-41.350650928507015
30
0
10
41.889448737544029
20
-40.769461981035839
30
0
10
41.285732544649179
20
-40.19603571852506
30
0
10
40.694279811652208
20
-39.652936815892645
30
0
10
40.091932048142581
20
-39.151062515048089
30
0
10
39.456765597266141
20
-38.679983751817666
30
0
10
38.766980949488676
20
-38.198587251933276
30
0
10
38.014722484013497
20
-37.643969338374625
30
0
10
37.219146683702
20
-36.941542634902703
30
0
10
36.441317255823797
20
-36.011619005173628
30
0
10
35.799763692011496
20
-34.78188906834707
30
0
10
35.291996152663273
20
-33.305140964733134
30
0
10
34.85950769021693
20
-31.696355208162252
30
0
10
34.402886383545912
20
-30.108739373652746
30
0
10
33.93334552275212
20
-28.977702404604308
30
0
10
33.48332666874262
20
-28.261564884090436
30
0
10
33.134693676308196
20
-27.849731138528384
30
0
10
32.94822062308473
20
-27.660213278466124
30
0
0
SPLINE
5
125
100
AcDbEntity
8
0
100
AcDbSpline
70
4
71
5
72
21
73
15
74
0
42
0.000000001
43
0.0000000001
44
0.0000000001
40
0
40
0
40
0
40
0
40
0
40
0
40
0.10000000000000001
40
0.20000000000000001
40
0.30000000000000004
40
0.40000000000000002
40
0.5
40
0.59999999999999998
40
0.69999999999999996
40
0.79999999999999982
40
0.8999999999999998
40
1
40
1
40
1
40
1
40
1
40
1
41
1
41
1
41
1
41
1
41
1
41
1
41
1
41
1
41
1
41
1
41
1
41
1
41
1
41
1
41
1
10
48.190364236964065
20
-38.659716205226175
30
0
10
48.065000304556591
20
-38.785080137633642
30
0
10
47.827248031658165
20
-39.039587426796928
30
0
10
47.509545505676215
20
-39.432572682591569
30
0
10
47.172834357046298
20
-39.961900609940628
30
0
10
46.945089941380203
20
-40.544258584053523
30
0
10
46.964849679966889
20
-40.978804060275237
30
0
10
47.269933102793011
20
-41.232252390946599
30
0
10
47.857078422431734
20
-41.445575407367087
30
0
10
48.640529964673718
20
-41.654873450788806
30
0
10
49.494440861446733
20
-41.788880328564488
30
0
10
50.126972559411058
20
-41.750329032804665
30
0
10
50.524048292027587
20
-41.59132966486176
30
0
10
50.747821516217414
20
-41.420473016570092
30
0
10
50.849471282262698
20
-41.318823250524808
30
0
0
SPLINE
5
126
100
AcDbEntity
8
0
100
AcDbSpline
70
4
71
5
72
21
73
15
74
0
42
0.000000001
43
0.0000000001
44
0.0000000001
40
0
40
0
40
0
40
0
40
0
40
0
40
0.10000000000000001
40
0.20000000000000001
40
0.30000000000000004
40
0.40000000000000002
40
0.5
40
0.59999999999999998
40
0.69999999999999996
40
0.79999999999999982
40
0.8999999999999998
40
1
40
1
40
1
40
1
40
1
40
1
41
1
41
1
41
1
41
1
41
1
41
1
41
1
41
1
41
1
41
1
41
1
41
1
41
1
41
1
41
1
10
32.948220623084751
20
-27.660213278466124
30
0
10
32.474772237097994
20
-27.18676489247936
30
0
10
31.478847496212943
20
-26.194814008438957
30
0
10
29.837871973831298
20
-24.572145473368082
30
0
10
27.380819352603627
20
-22.143169073256228
30
0
10
24.003182783162327
20
-18.791204144176504
30
0
10
20.507953662994254
20
-15.370102311018165
30
0
10
17.096155873127277
20
-12.453718202396193
30
0
10
13.96565243406533
20
-10.735624274859701
30
0
10
11.253709439009931
20
-11.870167280020375
30
0
10
9.1213192147360367
20
-15.446395071086867
30
0
10
8.0182122207103568
20
-18.882558315755396
30
0
10
7.5942187350367441
20
-20.964440278865716
30
0
10
7.5000000004721379
20
-22.001188671709819
30
0
10
7.5000000004707879
20
-22.431846891165499
30
0
0
SPLINE
5
127
100
AcDbEntity
8
0
100
AcDbSpline
70
4
71
5
72
21
73
15
74
0
42
0.000000001
43
0.0000000001
44
0.0000000001
40
0
40
0
40
0
40
0
40
0
40
0
40
0.10000000000000001
40
0.20000000000000001
40
0.30000000000000004
40
0.40000000000000002
40
0.5
40
0.59999999999999998
40
0.69999999999999996
40
0.79999999999999982
40
0.8999999999999998
40
1
40
1
40
1
40
1
40
1
40
1
41
1
41
1
41
1
41
1
41
1
41
1
41
1
41
1
41
1
41
1
41
1
41
1
41
1
41
1
41
1
10
-32.948220623084822
20
-27.66021327846612
30
0
10
-32.474772237098065
20
-27.186764892479349
30
0
10
-31.478847496213032
20
-26.194814008438971
30
0
10
-29.837871973831422
20
-24.572145473368181
30
0
10
-27.380819352603876
20
-22.143169073256459
30
0
10
-24.003182783162629
20
-18.791204144176717
30
0
10
-20.507953662994449
20
-15.370102311018288
30
0
10
-17.096155873127366
20
-12.453718202396191
30
0
10
-13.965652434065419
20
-10.735624274859683
30
0
10
-11.25370943901002
20
-11.870167280020411
30
0
10
-9.1213192147361788
20
-15.446395071086956
30
0
10
-8.0182122207104811
20
-18.882558315755432
30
0
10
-7.5942187350368329
20
-20.964440278865734
30
0
10
-7.5000000004722267
20
-22.001188671709802
30
0
10
-7.5000000004708767
20
-22.431846891165463
30
0
0
SPLINE
5
128
100
AcDbEntity
8
0
100
AcDbSpline
70
4
71
5
72
26
73
20
74
0
42
0.000000001
43
0.0000000001
44
0.0000000001
40
0
40
0
40
0
40
0
40
0
40
0
40
0.066666666666666666
40
0.13333333333333333
40
0.20000000000000001
40
0.26666666666666666
40
0.33333333333333331
40
0.40000000000000002
40
0.46666666666666662
40
0.53333333333333333
40
0.59999999999999998
40
0.66666666666666663
40
0.73333333333333306
40
0.79999999999999982
40
0.8666666666666667
40
0.93333333333333324
40
1
40
1
40
1
40
1
40
1
40
1
41
1
41
1
41
1
41
1
41
1
41
1
41
1
41
1
41
1
41
1
41
1
41
1
41
1
41
1
41
1
41
1
41
1
41
1
41
1
41
1
10
-5.3290705182007514e-14
20
15.531222875553453
30
0
10
-0.1306805336183281
20
15.531222875553471
30
0
10
-0.39928702248337444
20
15.525894430576649
30
0
10
-0.82220925383632348
20
15.503095656667906
30
0
10
-1.3677703088039728
20
15.464896096752682
30
0
10
-1.7624221254453865
20
15.49579877608004
30
0
10
-2.1141103790561111
20
15.366192663868109
30
0
10
-2.8597461698690374
20
14.769227204199137
30
0
10
-4.009052854380446
20
13.724856130633963
30
0
10
-5.4606452256078697
20
12.340431441211418
30
0
10
-6.9682838224073862
20
10.799860106332698
30
0
10
-8.2489673483350501
20
9.2820387366581478
30
0
10
-9.0297533023677623
20
7.857432734163039
30
0
10
-9.1149564102985359
20
6.5643537395693619
30
0
10
-8.362365935340037
20
5.4674397435591082
30
0
10
-6.6741679808311716
20
4.6248313723577539
30
0
10
-4.5237408947032876
20
4.1985396243409889
30
0
10
-2.4446215815232186
20
4.0360955253872577
30
0
10
-0.84968368563997032
20
3.9999999552965138
30
0
10
-1.7763568394002505e-14
20
3.9999999552965315
30
0
0
SPLINE
5
129
100
AcDbEntity
8
0
100
AcDbSpline
70
4
71
5
72
26
73
20
74
0
42
0.000000001
43
0.0000000001
44
0.0000000001
40
0
40
0
40
0
40
0
40
0
40
0
40
0.066666666666666666
40
0.13333333333333333
40
0.20000000000000001
40
0.26666666666666666
40
0.33333333333333331
40
0.40000000000000002
40
0.46666666666666662
40
0.53333333333333333
40
0.59999999999999998
40
0.66666666666666663
40
0.73333333333333306
40
0.79999999999999982
40
0.8666666666666667
40
0.93333333333333324
40
1
40
1
40
1
40
1
40
1
40
1
41
1
41
1
41
1
41
1
41
1
41
1
41
1
41
1
41
1
41
1
41
1
41
1
41
1
41
1
41
1
41
1
41
1
41
1
41
1
41
1
10
-1.7763568394002505e-14
20
-15.781222964960378
30
0
10
0.29602436829300416
20
-15.781222964960378
30
0
10
0.86326105682029919
20
-15.776916100935104
30
0
10
1.6395286756535299
20
-15.757283288416424
30
0
10
2.5376976265586748
20
-15.71277243044883
30
0
10
3.4754994756896096
20
-15.6181428361585
30
0
10
4.2736644148467917
20
-15.441539944793297
30
0
10
4.8977902088958736
20
-14.979818103000639
30
0
10
5.3188767199127618
20
-14.018664037951996
30
0
10
5.7136365318658555
20
-12.714007733441266
30
0
10
6.2545598619411713
20
-11.263242671419045
30
0
10
7.0512993204968843
20
-9.8808227519461909
30
0
10
7.9874914783494155
20
-8.4879847615267145
30
0
10
8.707174159219857
20
-6.9661500687584743
30
0
10
8.7727006087390969
20
-5.4436623528412253
30
0
10
7.703469998649215
20
-4.1030802446007364
30
0
10
5.5882017750439239
20
-3.357551728139776
30
0
10
3.143962711195627
20
-3.0649967070405859
30
0
10
1.1146306373795412
20
-3.0000000447034525
30
0
10
-5.3290705182007514e-14
20
-3.0000000447034703
30
0
0
SPLINE
5
130
100
AcDbEntity
8
0
100
AcDbSpline
70
4
71
5
72
26
73
20
74
0
42
0.000000001
43
0.0000000001
44
0.0000000001
40
0
40
0
40
0
40
0
40
0
40
0
40
0.066666666666666666
40
0.13333333333333333
40
0.20000000000000001
40
0.26666666666666666
40
0.33333333333333331
40
0.40000000000000002
40
0.46666666666666662
40
0.53333333333333333
40
0.59999999999999998
40
0.66666666666666663
40
0.73333333333333306
40
0.79999999999999982
40
0.8666666666666667
40
0.93333333333333324
40
1
40
1
40
1
40
1
40
1
40
1
41
1
41
1
41
1
41
1
41
1
41
1
41
1
41
1
41
1
41
1
41
1
41
1
41
1
41
1
41
1
41
1
41
1
41
1
41
1
41
1
10
-1.7763568394002505e-14
20
-15.781222964960378
30
0
10
-0.29602436829309298
20
-15.781222964960378
30
0
10
-0.86326105682038801
20
-15.776916100935104
30
0
10
-1.6395286756536542
20
-15.757283288416478
30
0
10
-2.5376976265587992
20
-15.712772430448865
30
0
10
-3.4754994756896629
20
-15.6181428361585
30
0
10
-4.2736644148468805
20
-15.441539944793279
30
0
10
-4.8977902088959979
20
-14.979818103000639
30
0
10
-5.3188767199128506
20
-14.018664037952014
30
0
10
-5.7136365318659799
20
-12.714007733441283
30
0
10
-6.2545598619412601
20
-11.263242671419027
30
0
10
-7.0512993204969732
20
-9.8808227519461731
30
0
10
-7.9874914783495043
20
-8.4879847615267323
30
0
10
-8.7071741592199103
20
-6.9661500687584565
30
0
10
-8.7727006087391501
20
-5.4436623528412076
30
0
10
-7.7034699986492683
20
-4.1030802446007186
30
0
10
-5.5882017750439772
20
-3.357551728139776
30
0
10
-3.1439627111957158
20
-3.0649967070406037
30
0
10
-1.11463063737963
20
-3.0000000447034525
30
0
10
-5.3290705182007514e-14
20
-3.0000000447034703
30
0
0
SPLINE
5
131
100
AcDbEntity
8
0
100
AcDbSpline
70
4
71
5
72
36
73
30
74
0
42
0.000000001
43
0.0000000001
44
0.0000000001
40
0
40
0
40
0
40
0
40
0
40
0
40
0.040000000000000001
40
0.080000000000000002
40
0.12
40
0.16
40
0.20000000000000001
40
0.23999999999999999
40
0.28000000000000003
40
0.32000000000000001
40
0.35999999999999999
40
0.40000000000000002
40
0.44
40
0.47999999999999993
40
0.51999999999999991
40
0.56000000000000005
40
0.59999999999999998
40
0.64000000000000001
40
0.68000000000000005
40
0.72000000000000008
40
0.76000000000000023
40
0.80000000000000016
40
0.8400000000000003
40
0.88000000000000023
40
0.92000000000000015
40
0.96000000000000041
40
1
40
1
40
1
40
1
40
1
40
1
41
1
41
1
41
1
41
1
41
1
41
1
41
1
41
1
41
1
41
1
41
1
41
1
41
1
41
1
41
1
41
1
41
1
41
1
41
1
41
1
41
1
41
1
41
1
41
1
41
1
41
1
41
1
41
1
41
1
41
1
10
-52.815397245092456
20
-43.284749213354516
30
0
10
-52.698429276444202
20
-43.394327971204675
30
0
10
-52.434403341850086
20
-43.591907049491084
30
0
10
-51.948094109328494
20
-43.823540315032439
30
0
10
-51.132591719435098
20
-44.006557056550939
30
0
10
-49.913440870478908
20
-44.047478563475352
30
0
10
-48.596802718459898
20
-43.929931255797747
30
0
10
-47.286849030872929
20
-43.685584189739387
30
0
10
-46.068960128517901
20
-43.343482706778317
30
0
10
-44.98638591383164
20
-42.924509641585757
30
0
10
-44.048051663311924
20
-42.443926496310056
30
0
10
-43.239248772035722
20
-41.914720005581515
30
0
10
-42.530946279079473
20
-41.350650928507008
30
0
10
-41.889448737543958
20
-40.769461981035718
30
0
10
-41.285732544649022
20
-40.196035718524868
30
0
10
-40.694279811652109
20
-39.652936815892502
30
0
10
-40.091932048142652
20
-39.151062515048068
30
0
10
-39.456765597266369
20
-38.679983751817787
30
0
10
-38.766980949488911
20
-38.198587251933432
30
0
10
-38.014722484013689
20
-37.643969338374703
30
0
10
-37.21914668370205
20
-36.941542634902682
30
0
10
-36.441317255823847
20
-36.011619005173614
30
0
10
-35.79976369201168
20
-34.781889068347176
30
0
10
-35.291996152663486
20
-33.30514096473329
30
0
10
-34.859507690217114
20
-31.696355208162394
30
0
10
-34.402886383546004
20
-30.10873937365281
30
0
10
-33.933345522752191
20
-28.977702404604308
30
0
10
-33.48332666874272
20
-28.261564884090426
30
0
10
-33.134693676308288
20
-27.849731138528369
30
0
10
-32.948220623084822
20
-27.660213278466102
30
0
0
SPLINE
5
132
100
AcDbEntity
8
0
100
AcDbSpline
70
4
71
5
72
21
73
15
74
0
42
0.000000001
43
0.0000000001
44
0.0000000001
40
0
40
0
40
0
40
0
40
0
40
0
40
0.10000000000000001
40
0.20000000000000001
40
0.30000000000000004
40
0.40000000000000002
40
0.5
40
0.59999999999999998
40
0.69999999999999996
40
0.79999999999999982
40
0.8999999999999998
40
1
40
1
40
1
40
1
40
1
40
1
41
1
41
1
41
1
41
1
41
1
41
1
41
1
41
1
41
1
41
1
41
1
41
1
41
1
41
1
41
1
10
-48.190364236964157
20
-38.659716205226161
30
0
10
-48.065000304556648
20
-38.785080137633635
30
0
10
-47.827248031658257
20
-39.039587426796921
30
0
10
-47.509545505676471
20
-39.432572682591548
30
0
10
-47.172834357046781
20
-39.961900609940699
30
0
10
-46.945089941380559
20
-40.544258584053601
30
0
10
-46.964849679966946
20
-40.978804060275245
30
0
10
-47.269933102793033
20
-41.232252390946556
30
0
10
-47.857078422431925
20
-41.445575407367116
30
0
10
-48.640529964673988
20
-41.654873450788941
30
0
10
-49.494440861447003
20
-41.788880328564701
30
0
10
-50.126972559411257
20
-41.750329032804778
30
0
10
-50.524048292027729
20
-41.591329664861796
30
0
10
-50.747821516217485
20
-41.420473016570071
30
0
10
-50.849471282262769
20
-41.318823250524801
30
0
0
SPLINE
5
133
100
AcDbEntity
8
0
100
AcDbSpline
70
4
71
5
72
36
73
30
74
0
42
0.000000001
43
0.0000000001
44
0.0000000001
40
0
40
0
40
0
40
0
40
0
40
0
40
0.040000000000000001
40
0.080000000000000002
40
0.12
40
0.16
40
0.20000000000000001
40
0.23999999999999999
40
0.28000000000000003
40
0.32000000000000001
40
0.35999999999999999
40
0.40000000000000002
40
0.44
40
0.47999999999999993
40
0.51999999999999991
40
0.56000000000000005
40
0.59999999999999998
40
0.64000000000000001
40
0.68000000000000005
40
0.72000000000000008
40
0.76000000000000023
40
0.80000000000000016
40
0.8400000000000003
40
0.88000000000000023
40
0.92000000000000015
40
0.96000000000000041
40
1
40
1
40
1
40
1
40
1
40
1
41
1
41
1
41
1
41
1
41
1
41
1
41
1
41
1
41
1
41
1
41
1
41
1
41
1
41
1
41
1
41
1
41
1
41
1
41
1
41
1
41
1
41
1
41
1
41
1
41
1
41
1
41
1
41
1
41
1
41
1
10
-52.815397245092456
20
-43.284749213354516
30
0
10
-52.924976002942628
20
-43.167781244706269
30
0
10
-53.122555081229081
20
-42.90375531011216
30
0
10
-53.354188346770513
20
-42.417446077590661
30
0
10
-53.537205088289227
20
-41.601943687697528
30
0
10
-53.578126595213803
20
-40.382792838741473
30
0
10
-53.460579287536177
20
-39.06615468672242
30
0
10
-53.216232221477341
20
-37.756200999134975
30
0
10
-52.874130738515902
20
-36.538312096779521
30
0
10
-52.455157673323157
20
-35.455737882093075
30
0
10
-51.97457452804754
20
-34.517403631573437
30
0
10
-51.445368037319227
20
-33.70860074029747
30
0
10
-50.88129896024499
20
-33.000298247341533
30
0
10
-50.300110012773999
20
-32.358800705806225
30
0
10
-49.726683750263248
20
-31.755084512911395
30
0
10
-49.183584847630698
20
-31.163631779914365
30
0
10
-48.681710546786036
20
-30.561284016404663
30
0
10
-48.210631783555527
20
-29.926117565528209
30
0
10
-47.729235283671173
20
-29.236332917750765
30
0
10
-47.174617370112614
20
-28.484074452275621
30
0
10
-46.472190666640699
20
-27.688498651964132
30
0
10
-45.542267036911582
20
-26.910669224085897
30
0
10
-44.312537100084995
20
-26.269115660273634
30
0
10
-42.835788996471095
20
-25.761348120925419
30
0
10
-41.227003239900156
20
-25.328859658479072
30
0
10
-39.639387405390622
20
-24.872238351808001
30
0
10
-38.508350436342255
20
-24.402697491014187
30
0
10
-37.792212915828415
20
-23.952678637004698
30
0
10
-37.380379170266366
20
-23.604045644570309
30
0
10
-37.190861310204099
20
-23.417572591346843
30
0
0
SPLINE
5
134
100
AcDbEntity
8
0
100
AcDbSpline
70
4
71
5
72
21
73
15
74
0
42
0.000000001
43
0.0000000001
44
0.0000000001
40
0
40
0
40
0
40
0
40
0
40
0
40
0.10000000000000001
40
0.20000000000000001
40
0.30000000000000004
40
0.40000000000000002
40
0.5
40
0.59999999999999998
40
0.69999999999999996
40
0.79999999999999982
40
0.8999999999999998
40
1
40
1
40
1
40
1
40
1
40
1
41
1
41
1
41
1
41
1
41
1
41
1
41
1
41
1
41
1
41
1
41
1
41
1
41
1
41
1
41
1
10
-48.190364236964157
20
-38.659716205226161
30
0
10
-48.315728169371596
20
-38.534352272818694
30
0
10
-48.570235458534924
20
-38.296599999920232
30
0
10
-48.963220714329751
20
-37.978897473938233
30
0
10
-49.492548641679065
20
-37.642186325308309
30
0
10
-50.074906615791846
20
-37.414441909642363
30
0
10
-50.509452092013248
20
-37.434201648229006
30
0
10
-50.762900422684481
20
-37.739285071055093
30
0
10
-50.97622343910524
20
-38.326430390693915
30
0
10
-51.185521482527236
20
-39.109881932936062
30
0
10
-51.319528360302925
20
-39.963792829709107
30
0
10
-51.280977064542896
20
-40.596324527673318
30
0
10
-51.121977696599842
20
-40.993400260289761
30
0
10
-50.951121048308053
20
-41.217173484479524
30
0
10
-50.849471282262769
20
-41.318823250524801
30
0
0
CIRCLE
5
135
100
AcDbEntity
8
0
100
AcDbCircle
10
-48.761929122058078
20
-34.731291240152864
30
0
40
1
210
-0
220
0
230
1
0
CIRCLE
5
136
100
AcDbEntity
8
0
100
AcDbCircle
10
-44.261918972248239
20
-39.231281090320095
30
0
40
1
210
-0
220
0
230
1
0
CIRCLE
5
137
100
AcDbEntity
8
0
100
AcDbCircle
10
-39.761929122080971
20
-34.731270940510271
30
0
40
1
210
-0
220
0
230
1
0
CIRCLE
5
138
100
AcDbEntity
8
0
100
AcDbCircle
10
-44.26193927189081
20
-30.231281090343035
30
0
40
1
210
-0
220
0
230
1
0
CIRCLE
5
139
100
AcDbEntity
8
0
100
AcDbCircle
10
-44.261929122069517
20
-34.731281090331557
30
0
40
2
210
-0
220
0
230
1
0
LINE
5
140
100
AcDbEntity
8
0
100
AcDbLine
10
35.658503918279081
20
21.343038757755576
30
0
11
35.658503918279081
21
21.343038757755576
31
0
0
SPLINE
5
141
100
AcDbEntity
8
0
100
AcDbSpline
70
4
71
5
72
26
73
20
74
0
42
0.000000001
43
0.0000000001
44
0.0000000001
40
0
40
0
40
0
40
0
40
0
40
0
40
0.066666666666666666
40
0.13333333333333333
40
0.20000000000000001
40
0.26666666666666666
40
0.33333333333333331
40
0.40000000000000002
40
0.46666666666666662
40
0.53333333333333333
40
0.59999999999999998
40
0.66666666666666663
40
0.73333333333333306
40
0.79999999999999982
40
0.8666666666666667
40
0.93333333333333324
40
1
40
1
40
1
40
1
40
1
40
1
41
1
41
1
41
1
41
1
41
1
41
1
41
1
41
1
41
1
41
1
41
1
41
1
41
1
41
1
41
1
41
1
41
1
41
1
41
1
41
1
10
-5.3290705182007514e-14
20
15.531222875553453
30
0
10
0.13068053361825704
20
15.531222875553453
30
0
10
0.39928702248328563
20
15.525894430576649
30
0
10
0.82220925383623467
20
15.503095656667906
30
0
10
1.3677703088038484
20
15.464896096752682
30
0
10
1.7624221254453332
20
15.495798776080058
30
0
10
2.1141103790560223
20
15.366192663868127
30
0
10
2.8597461698689131
20
14.769227204199172
30
0
10
4.0090528543803572
20
13.724856130633981
30
0
10
5.4606452256077809
20
12.340431441211454
30
0
10
6.9682838224072974
20
10.79986010633268
30
0
10
8.2489673483349968
20
9.2820387366581301
30
0
10
9.0297533023676912
20
7.8574327341630212
30
0
10
9.1149564102984648
20
6.5643537395693796
30
0
10
8.3623659353399482
20
5.467439743559126
30
0
10
6.6741679808310828
20
4.6248313723577539
30
0
10
4.5237408947032165
20
4.1985396243409712
30
0
10
2.4446215815231298
20
4.0360955253872399
30
0
10
0.8496836856398815
20
3.9999999552965315
30
0
10
-5.3290705182007514e-14
20
3.9999999552965138
30
0
0
CIRCLE
5
142
100
AcDbEntity
8
0
100
AcDbCircle
10
45.463766161382949
20
39.05486425605045
30
0
40
1.0000000000000004
210
-0
220
0
230
1
0
CIRCLE
5
143
100
AcDbEntity
8
0
100
AcDbCircle
10
49.964109636851255
20
34.555207757737513
30
0
40
1.0000000000000004
210
-0
220
0
230
1
0
CIRCLE
5
144
100
AcDbEntity
8
0
100
AcDbCircle
10
45.464109649955432
20
34.554864269164128
30
0
40
2.0000000000000009
210
-0
220
0
230
1
0
SPLINE
5
145
100
AcDbEntity
8
0
100
AcDbSpline
70
4
71
5
72
21
73
15
74
0
42
0.000000001
43
0.0000000001
44
0.0000000001
40
0
40
0
40
0
40
0
40
0
40
0
40
0.10000000000000001
40
0.20000000000000001
40
0.30000000000000004
40
0.40000000000000002
40
0.5
40
0.59999999999999998
40
0.69999999999999996
40
0.79999999999999982
40
0.8999999999999998
40
1
40
1
40
1
40
1
40
1
40
1
41
1
41
1
41
1
41
1
41
1
41
1
41
1
41
1
41
1
41
1
41
1
41
1
41
1
41
1
41
1
10
49.378608426866251
20
38.497846489739416
30
0
10
49.504671524457926
20
38.372694050866912
30
0
10
49.760657729653452
20
38.135673427728399
30
0
10
50.156100198477098
20
37.819994274088323
30
0
10
50.688924007776293
20
37.487463961672894
30
0
10
51.274600204251328
20
37.26546870006753
30
0
10
51.710410828422241
20
37.289257032637458
30
0
10
51.962371445362209
20
37.594836258390117
30
0
10
52.173976158887228
20
38.178279981166071
30
0
10
52.382632792401424
20
38.955695102301931
30
0
10
52.515227159609324
20
39.804330646845244
30
0
10
52.472913173740764
20
40.436043807876004
30
0
10
52.308432839657172
20
40.835733949662526
30
0
10
52.132573244935415
20
41.062867120667015
30
0
10
52.028084428070244
20
41.166601127806395
30
0
0
SPLINE
5
146
100
AcDbEntity
8
0
100
AcDbSpline
70
4
71
5
72
21
73
15
74
0
42
0.000000001
43
0.0000000001
44
0.0000000001
40
0
40
0
40
0
40
0
40
0
40
0
40
0.10000000000000001
40
0.20000000000000001
40
0.30000000000000004
40
0.40000000000000002
40
0.5
40
0.59999999999999998
40
0.69999999999999996
40
0.79999999999999982
40
0.8999999999999998
40
1
40
1
40
1
40
1
40
1
40
1
41
1
41
1
41
1
41
1
41
1
41
1
41
1
41
1
41
1
41
1
41
1
41
1
41
1
41
1
41
1
10
49.378608426866251
20
38.497846489739416
30
0
10
49.252545329274668
20
38.622998928611992
30
0
10
49.013675054795129
20
38.87726002475825
30
0
10
48.695137269752458
20
39.270403451121261
30
0
10
48.358752764546026
20
39.800802437817502
30
0
10
48.132517229392846
20
40.384853793373487
30
0
10
48.15314534295014
20
40.820825427586058
30
0
10
48.456889842480123
20
41.074994848849968
30
0
10
49.03878411369039
20
41.290823923733555
30
0
10
49.814666058845617
20
41.505111273948962
30
0
10
50.662318001298686
20
41.643854699498881
30
0
10
51.294321333423284
20
41.60612169798803
30
0
10
51.695193440830124
20
41.444543409704089
30
0
10
51.92359561120503
20
41.270335134945775
30
0
10
52.028084428070244
20
41.166601127806395
30
0
0
SPLINE
5
147
100
AcDbEntity
8
0
100
AcDbSpline
70
4
71
5
72
36
73
30
74
0
42
0.000000001
43
0.0000000001
44
0.0000000001
40
0
40
0
40
0
40
0
40
0
40
0
40
0.040000000000000001
40
0.080000000000000002
40
0.12
40
0.16
40
0.20000000000000001
40
0.23999999999999999
40
0.28000000000000003
40
0.32000000000000001
40
0.35999999999999999
40
0.40000000000000002
40
0.44
40
0.47999999999999993
40
0.51999999999999991
40
0.56000000000000005
40
0.59999999999999998
40
0.64000000000000001
40
0.68000000000000005
40
0.72000000000000008
40
0.76000000000000023
40
0.80000000000000016
40
0.8400000000000003
40
0.88000000000000023
40
0.92000000000000015
40
0.96000000000000041
40
1
40
1
40
1
40
1
40
1
40
1
41
1
41
1
41
1
41
1
41
1
41
1
41
1
41
1
41
1
41
1
41
1
41
1
41
1
41
1
41
1
41
1
41
1
41
1
41
1
41
1
41
1
41
1
41
1
41
1
41
1
41
1
41
1
41
1
41
1
41
1
10
53.990310840950514
20
43.143105477320049
30
0
10
53.873238761515822
20
43.252558056374411
30
0
10
53.609276499059781
20
43.449719200949147
30
0
10
53.123878387241689
20
43.680228804962681
30
0
10
52.31093155117415
20
43.860844528835727
30
0
10
51.095678201670495
20
43.89778805586802
30
0
10
49.781958482260933
20
43.775974564938984
30
0
10
48.472737858827358
20
43.527766105697637
30
0
10
47.253355988804699
20
43.182787571440002
30
0
10
46.168742302240418
20
42.762173042569565
30
0
10
45.230067593408677
20
42.281080733964288
30
0
10
44.424569924112056
20
41.752144451250786
30
0
10
43.723924602927994
20
41.188609534430043
30
0
10
43.092931763967442
20
40.607562344333132
30
0
10
42.498005150589307
20
40.033333460082332
30
0
10
41.908872510035842
20
39.488346965300586
30
0
10
41.30014704353421
20
38.983684441288084
30
0
10
40.652965587955094
20
38.509743406338195
30
0
10
39.956720038244384
20
38.026386362382652
30
0
10
39.213324563932872
20
37.472628997232135
30
0
10
38.442237110673929
20
36.776799159703721
30
0
10
37.684127370396752
20
35.865969807768522
30
0
10
37.010585800327434
20
34.674514533208914
30
0
10
36.420033268771434
20
33.251180768973995
30
0
10
35.874302040663792
20
31.704036932728595
30
0
10
35.310088552826556
20
30.176401643513596
30
0
10
34.789803438718643
20
29.084287982287918
30
0
10
34.335912784556925
20
28.388788981615068
30
0
10
34.001760920871234
20
27.986476683460722
30
0
10
33.826794737459394
20
27.80065991341116
30
0
0
SPLINE
5
148
100
AcDbEntity
8
0
100
AcDbSpline
70
4
71
5
72
36
73
30
74
0
42
0.000000001
43
0.0000000001
44
0.0000000001
40
0
40
0
40
0
40
0
40
0
40
0
40
0.040000000000000001
40
0.080000000000000002
40
0.12
40
0.16
40
0.20000000000000001
40
0.23999999999999999
40
0.28000000000000003
40
0.32000000000000001
40
0.35999999999999999
40
0.40000000000000002
40
0.44
40
0.47999999999999993
40
0.51999999999999991
40
0.56000000000000005
40
0.59999999999999998
40
0.64000000000000001
40
0.68000000000000005
40
0.72000000000000008
40
0.76000000000000023
40
0.80000000000000016
40
0.8400000000000003
40
0.88000000000000023
40
0.92000000000000015
40
0.96000000000000041
40
1
40
1
40
1
40
1
40
1
40
1
41
1
41
1
41
1
41
1
41
1
41
1
41
1
41
1
41
1
41
1
41
1
41
1
41
1
41
1
41
1
41
1
41
1
41
1
41
1
41
1
41
1
41
1
41
1
41
1
41
1
41
1
41
1
41
1
41
1
41
1
10
53.990310840950514
20
43.143105477320049
30
0
10
54.100609307135826
20
43.026829997523222
30
0
10
54.299678976407826
20
42.76430407555209
30
0
10
54.533701621728611
20
42.280589897575531
30
0
10
54.720206401475465
20
41.468973876840423
30
0
10
54.765959451818333
20
40.254020303219171
30
0
10
54.653673530181891
20
38.939451971201827
30
0
10
54.414963343921272
20
37.62846626302666
30
0
10
54.078834301741892
20
36.406615371533789
30
0
10
53.666094193675789
20
35.318980766451496
30
0
10
53.191819848820373
20
34.376842844376696
30
0
10
52.668737263853664
20
33.567531596637018
30
0
10
52.110296782531158
20
32.862819103917495
30
0
10
51.53383951298315
20
32.22763030023269
30
0
10
50.963938892700909
20
31.628556206469685
30
0
10
50.423237887505117
20
31.03548793835682
30
0
10
49.923001839817083
20
30.423119704934422
30
0
10
49.453765276789134
20
29.772519221556259
30
0
10
48.975468663162559
20
29.072787668155243
30
0
10
48.427115411897361
20
28.325397032335978
30
0
10
47.73689418680668
20
27.549285130738262
30
0
10
46.831585010292045
20
26.784591870948805
30
0
10
45.645044173502939
20
26.102430042261972
30
0
10
44.226029276838744
20
25.501573969660981
30
0
10
42.682882610985388
20
24.944640408965796
30
0
10
41.159377974432267
20
24.369366509754041
30
0
10
40.071065042541711
20
23.841177328419146
30
0
10
39.378874992979469
20
23.382256288195396
30
0
10
38.978995843572584
20
23.045196472849995
30
0
10
38.794452448484797
20
22.868887730301971
30
0
0
CIRCLE
5
149
100
AcDbEntity
8
0
100
AcDbCircle
10
40.964109663070047
20
34.554520780582138
30
0
40
1.0000000000000004
210
-0
220
0
230
1
0
CIRCLE
5
150
100
AcDbEntity
8
0
100
AcDbCircle
10
45.46445313853836
20
30.054864282269239
30
0
40
1.0000000000000004
210
-0
220
0
230
1
0
SPLINE
5
151
100
AcDbEntity
8
0
100
AcDbSpline
70
4
71
5
72
36
73
30
74
0
42
0.000000001
43
0.0000000001
44
0.0000000001
40
0
40
0
40
0
40
0
40
0
40
0
40
0.040000000000000001
40
0.080000000000000002
40
0.12
40
0.16
40
0.20000000000000001
40
0.23999999999999999
40
0.28000000000000003
40
0.32000000000000001
40
0.35999999999999999
40
0.40000000000000002
40
0.44
40
0.47999999999999993
40
0.51999999999999991
40
0.56000000000000005
40
0.59999999999999998
40
0.64000000000000001
40
0.68000000000000005
40
0.72000000000000008
40
0.76000000000000023
40
0.80000000000000016
40
0.8400000000000003
40
0.88000000000000023
40
0.92000000000000015
40
0.96000000000000041
40
1
40
1
40
1
40
1
40
1
40
1
41
1
41
1
41
1
41
1
41
1
41
1
41
1
41
1
41
1
41
1
41
1
41
1
41
1
41
1
41
1
41
1
41
1
41
1
41
1
41
1
41
1
41
1
41
1
41
1
41
1
41
1
41
1
41
1
41
1
41
1
10
-53.990310840950585
20
43.143105477320049
30
0
10
-53.873238761515893
20
43.252558056374433
30
0
10
-53.609276499059831
20
43.449719200949133
30
0
10
-53.12387838724176
20
43.680228804962589
30
0
10
-52.31093155117405
20
43.860844528835372
30
0
10
-51.095678201670239
20
43.897788055867544
30
0
10
-49.781958482260592
20
43.775974564938466
30
0
10
-48.47273785882733
20
43.527766105697538
30
0
10
-47.253355988805211
20
43.182787571440464
30
0
10
-46.168742302241284
20
42.762173042570346
30
0
10
-45.230067593409458
20
42.281080733965041
30
0
10
-44.424569924112575
20
41.752144451251226
30
0
10
-43.723924602928022
20
41.188609534430007
30
0
10
-43.092931763967201
20
40.607562344332777
30
0
10
-42.498005150589023
20
40.033333460081941
30
0
10
-41.908872510035749
20
39.488346965300401
30
0
10
-41.300147043534295
20
38.983684441288091
30
0
10
-40.652965587955322
20
38.509743406338323
30
0
10
-39.956720038244541
20
38.026386362382787
30
0
10
-39.213324563932929
20
37.472628997232164
30
0
10
-38.442237110673986
20
36.7767991597037
30
0
10
-37.684127370396837
20
35.865969807768515
30
0
10
-37.01058580032749
20
34.67451453320885
30
0
10
-36.420033268771462
20
33.251180768973938
30
0
10
-35.874302040663807
20
31.704036932728549
30
0
10
-35.310088552826628
20
30.176401643513625
30
0
10
-34.789803438718693
20
29.084287982287961
30
0
10
-34.335912784556953
20
28.388788981615093
30
0
10
-34.001760920871348
20
27.986476683460747
30
0
10
-33.826794737459537
20
27.800659913411167
30
0
0
SPLINE
5
152
100
AcDbEntity
8
0
100
AcDbSpline
70
4
71
5
72
36
73
30
74
0
42
0.000000001
43
0.0000000001
44
0.0000000001
40
0
40
0
40
0
40
0
40
0
40
0
40
0.040000000000000001
40
0.080000000000000002
40
0.12
40
0.16
40
0.20000000000000001
40
0.23999999999999999
40
0.28000000000000003
40
0.32000000000000001
40
0.35999999999999999
40
0.40000000000000002
40
0.44
40
0.47999999999999993
40
0.51999999999999991
40
0.56000000000000005
40
0.59999999999999998
40
0.64000000000000001
40
0.68000000000000005
40
0.72000000000000008
40
0.76000000000000023
40
0.80000000000000016
40
0.8400000000000003
40
0.88000000000000023
40
0.92000000000000015
40
0.96000000000000041
40
1
40
1
40
1
40
1
40
1
40
1
41
1
41
1
41
1
41
1
41
1
41
1
41
1
41
1
41
1
41
1
41
1
41
1
41
1
41
1
41
1
41
1
41
1
41
1
41
1
41
1
41
1
41
1
41
1
41
1
41
1
41
1
41
1
41
1
41
1
41
1
10
-53.990310840950585
20
43.143105477320027
30
0
10
-54.100609307135898
20
43.026829997523222
30
0
10
-54.299678976407947
20
42.764304075552161
30
0
10
-54.533701621728895
20
42.28058989757578
30
0
10
-54.720206401476176
20
41.468973876841098
30
0
10
-54.765959451819356
20
40.254020303220095
30
0
10
-54.653673530182886
20
38.93945197120258
30
0
10
-54.414963343921471
20
37.628466263026759
30
0
10
-54.078834301741111
20
36.406615371533142
30
0
10
-53.666094193674695
20
35.31898076645065
30
0
10
-53.191819848819662
20
34.3768428443761
30
0
10
-52.668737263853501
20
33.567531596636812
30
0
10
-52.110296782531279
20
32.862819103917509
30
0
10
-51.533839512983391
20
32.227630300232789
30
0
10
-50.963938892701123
20
31.628556206469781
30
0
10
-50.423237887505309
20
31.035487938356901
30
0
10
-49.923001839817175
20
30.423119704934379
30
0
10
-49.453765276789113
20
29.772519221556198
30
0
10
-48.975468663162488
20
29.072787668155144
30
0
10
-48.427115411897347
20
28.325397032335914
30
0
10
-47.736894186806765
20
27.549285130738305
30
0
10
-46.831585010292173
20
26.784591870948869
30
0
10
-45.645044173502868
20
26.102430042261876
30
0
10
-44.22602927683856
20
25.501573969660672
30
0
10
-42.682882610985132
20
24.944640408965363
30
0
10
-41.159377974432033
20
24.369366509753675
30
0
10
-40.071065042541619
20
23.841177328418976
30
0
10
-39.378874992979519
20
23.38225628819535
30
0
10
-38.978995843572676
20
23.045196472850002
30
0
10
-38.79445244848489
20
22.86888773030196
30
0
0
CIRCLE
5
153
100
AcDbEntity
8
0
100
AcDbCircle
10
-45.464453138538431
20
30.054864282269232
30
0
40
1.0000000000000004
210
-0
220
0
230
1
0
CIRCLE
5
154
100
AcDbEntity
8
0
100
AcDbCircle
10
-40.964109663070133
20
34.554520780582131
30
0
40
1.0000000000000004
210
-0
220
0
230
1
0
CIRCLE
5
155
100
AcDbEntity
8
0
100
AcDbCircle
10
-45.464109649960761
20
34.55486426915985
30
0
40
2.0000000000000009
210
-0
220
0
230
1
0
CIRCLE
5
156
100
AcDbEntity
8
0
100
AcDbCircle
10
-45.46376616138302
20
39.054864256050436
30
0
40
1.0000000000000004
210
-0
220
0
230
1
0
CIRCLE
5
157
100
AcDbEntity
8
0
100
AcDbCircle
10
-49.964109636851347
20
34.555207757737541
30
0
40
1.0000000000000004
210
-0
220
0
230
1
0
SPLINE
5
158
100
AcDbEntity
8
0
100
AcDbSpline
70
4
71
5
72
21
73
15
74
0
42
0.000000001
43
0.0000000001
44
0.0000000001
40
0
40
0
40
0
40
0
40
0
40
0
40
0.10000000000000001
40
0.20000000000000001
40
0.30000000000000004
40
0.40000000000000002
40
0.5
40
0.59999999999999998
40
0.69999999999999996
40
0.79999999999999982
40
0.8999999999999998
40
1
40
1
40
1
40
1
40
1
40
1
41
1
41
1
41
1
41
1
41
1
41
1
41
1
41
1
41
1
41
1
41
1
41
1
41
1
41
1
41
1
10
-49.378608426866336
20
38.497846489739388
30
0
10
-49.504671524458047
20
38.372694050866897
30
0
10
-49.760657729653545
20
38.135673427728321
30
0
10
-50.156100198477219
20
37.819994274088295
30
0
10
-50.688924007776436
20
37.487463961672852
30
0
10
-51.274600204251456
20
37.265468700067473
30
0
10
-51.710410828422354
20
37.289257032637416
30
0
10
-51.962371445362351
20
37.594836258390053
30
0
10
-52.173976158887371
20
38.178279981166028
30
0
10
-52.382632792401523
20
38.955695102301881
30
0
10
-52.515227159609395
20
39.80433064684518
30
0
10
-52.472913173740864
20
40.436043807875976
30
0
10
-52.308432839657314
20
40.835733949662476
30
0
10
-52.132573244935557
20
41.062867120666965
30
0
10
-52.028084428070386
20
41.166601127806324
30
0
0
SPLINE
5
159
100
AcDbEntity
8
0
100
AcDbSpline
70
4
71
5
72
21
73
15
74
0
42
0.000000001
43
0.0000000001
44
0.0000000001
40
0
40
0
40
0
40
0
40
0
40
0
40
0.10000000000000001
40
0.20000000000000001
40
0.30000000000000004
40
0.40000000000000002
40
0.5
40
0.59999999999999998
40
0.69999999999999996
40
0.79999999999999982
40
0.8999999999999998
40
1
40
1
40
1
40
1
40
1
40
1
41
1
41
1
41
1
41
1
41
1
41
1
41
1
41
1
41
1
41
1
41
1
41
1
41
1
41
1
41
1
10
-49.378608426866336
20
38.497846489739388
30
0
10
-49.252545329274739
20
38.622998928611906
30
0
10
-49.013675054795215
20
38.877260024758186
30
0
10
-48.695137269752578
20
39.270403451121197
30
0
10
-48.358752764546139
20
39.800802437817453
30
0
10
-48.132517229392974
20
40.384853793373438
30
0
10
-48.153145342950253
20
40.820825427586001
30
0
10
-48.456889842480223
20
41.074994848849911
30
0
10
-49.038784113690511
20
41.290823923733484
30
0
10
-49.814666058845717
20
41.505111273948913
30
0
10
-50.662318001298786
20
41.643854699498831
30
0
10
-51.294321333423397
20
41.606121697987973
30
0
10
-51.695193440830224
20
41.444543409704039
30
0
10
-51.923595611205172
20
41.270335134945725
30
0
10
-52.028084428070386
20
41.166601127806324
30
0
0
LWPOLYLINE
5
160
100
AcDbEntity
8
0
100
AcDbPolyline
90
2
70
1
43
0.0
10
13.57122168113321
20
144.63152224389654
10
13.57122168113321
20
144.63152224389654
0
SPLINE
5
161
100
AcDbEntity
8
0
100
AcDbSpline
70
4
71
5
72
36
73
30
74
0
42
0.000000001
43
0.0000000001
44
0.0000000001
40
0
40
0
40
0
40
0
40
0
40
0
40
0.040000000000000001
40
0.080000000000000002
40
0.12
40
0.16
40
0.20000000000000001
40
0.23999999999999999
40
0.28000000000000003
40
0.32000000000000001
40
0.35999999999999999
40
0.40000000000000002
40
0.44
40
0.47999999999999993
40
0.51999999999999991
40
0.56000000000000005
40
0.59999999999999998
40
0.64000000000000001
40
0.68000000000000005
40
0.72000000000000008
40
0.76000000000000023
40
0.80000000000000016
40
0.8400000000000003
40
0.88000000000000023
40
0.92000000000000015
40
0.96000000000000041
40
1
40
1
40
1
40
1
40
1
40
1
41
1
41
1
41
1
41
1
41
1
41
1
41
1
41
1
41
1
41
1
41
1
41
1
41
1
41
1
41
1
41
1
41
1
41
1
41
1
41
1
41
1
41
1
41
1
41
1
41
1
41
1
41
1
41
1
41
1
41
1
10
33.826794737459345
20
27.800659913411167
30
0
10
33.39691000108958
20
27.370775177041406
30
0
10
32.535092497410417
20
26.531256705845397
30
0
10
31.23622232705257
20
25.33271453552819
30
0
10
29.49281497623371
20
23.832956657257402
30
0
10
27.300060698452384
20
22.007956686983082
30
0
10
25.10415496269065
20
20.125612624444994
30
0
10
22.920588299370479
20
18.141576602369248
30
0
10
20.770496982950188
20
16.14738015145344
30
0
10
18.681549139734717
20
14.405454119546398
30
0
10
16.688063542656799
20
13.475527778349502
30
0
10
14.833085319851307
20
14.156061716159471
30
0
10
13.166667231519504
20
16.153154022131627
30
0
10
11.736080523240862
20
18.783671075570435
30
0
10
10.577759075632223
20
21.189829423188108
30
0
10
9.7091742095005173
20
22.723274267981953
30
0
10
9.1184896814475636
20
23.31323768231416
30
0
10
8.7601416686858791
20
23.689256421019088
30
0
10
8.5746459488658644
20
24.71898748461706
30
0
10
8.5145260057182348
20
26.696560428577488
30
0
10
8.5335038569332156
20
29.200094226633016
30
0
10
8.5259397495617684
20
31.559860045792018
30
0
10
8.297327993786876
20
33.154174211049543
30
0
10
7.4835494621688525
20
33.771136880629179
30
0
10
5.5524902125918985
20
33.98382816411906
30
0
10
3.029029561030967
20
34.022791023531084
30
0
10
1.2143440756832113
20
34.028492078609098
30
0
10
0.36081576484466638
20
34.030682266668421
30
0
10
0.073309769735789843
20
34.031222875553404
30
0
10
-1.2434497875801753e-13
20
34.031222875553389
30
0
0
LWPOLYLINE
5
162
100
AcDbEntity
8
0
100
AcDbPolyline
90
2
70
1
43
0.0
10
193.57122168113321
20
144.63152224389654
10
193.57122168113321
20
144.63152224389654
0
SPLINE
5
163
100
AcDbEntity
8
0
100
AcDbSpline
70
4
71
5
72
36
73
30
74
0
42
0.000000001
43
0.0000000001
44
0.0000000001
40
0
40
0
40
0
40
0
40
0
40
0
40
0.040000000000000001
40
0.080000000000000002
40
0.12
40
0.16
40
0.20000000000000001
40
0.23999999999999999
40
0.28000000000000003
40
0.32000000000000001
40
0.35999999999999999
40
0.40000000000000002
40
0.44
40
0.47999999999999993
40
0.51999999999999991
40
0.56000000000000005
40
0.59999999999999998
40
0.64000000000000001
40
0.68000000000000005
40
0.72000000000000008
40
0.76000000000000023
40
0.80000000000000016
40
0.8400000000000003
40
0.88000000000000023
40
0.92000000000000015
40
0.96000000000000041
40
1
40
1
40
1
40
1
40
1
40
1
41
1
41
1
41
1
41
1
41
1
41
1
41
1
41
1
41
1
41
1
41
1
41
1
41
1
41
1
41
1
41
1
41
1
41
1
41
1
41
1
41
1
41
1
41
1
41
1
41
1
41
1
41
1
41
1
41
1
41
1
10
-33.826794737459579
20
27.800659913411142
30
0
10
-33.396910001089836
20
27.370775177041399
30
0
10
-32.535092497410631
20
26.531256705845333
30
0
10
-31.236222327052463
20
25.332714535527753
30
0
10
-29.49281497623323
20
23.832956657256489
30
0
10
-27.300060698451585
20
22.007956686981721
30
0
10
-25.104154962689993
20
20.125612624443757
30
0
10
-22.920588299370195
20
18.141576602368495
30
0
10
-20.770496982950295
20
16.147380151453245
30
0
10
-18.681549139734965
20
14.405454119546452
30
0
10
-16.688063542656977
20
13.47552777834942
30
0
10
-14.833085319851502
20
14.156061716159417
30
0
10
-13.166667231519771
20
16.153154022131645
30
0
10
-11.736080523241146
20
18.783671075570506
30
0
10
-10.577759075632489
20
21.189829423188154
30
0
10
-9.7091742095007483
20
22.723274267981918
30
0
10
-9.118489681447759
20
23.313237682314099
30
0
10
-8.76014166868611
20
23.689256421019063
30
0
10
-8.5746459488660953
20
24.71898748461706
30
0
10
-8.514526005718448
20
26.696560428577524
30
0
10
-8.5335038569334465
20
29.20009422663307
30
0
10
-8.5259397495620348
20
31.559860045792053
30
0
10
-8.2973279937871247
20
33.154174211049543
30
0
10
-7.4835494621691012
20
33.771136880629179
30
0
10
-5.5524902125921471
20
33.983828164119117
30
0
10
-3.0290295610312512
20
34.022791023531177
30
0
10
-1.2143440756834778
20
34.028492078609204
30
0
10
-0.36081576484491507
20
34.030682266668443
30
0
10
-0.073309769736038533
20
34.031222875553404
30
0
10
-1.2434497875801753e-13
20
34.031222875553404
30
0
0
SPLINE
5
164
100
AcDbEntity
8
0
100
AcDbSpline
70
4
71
5
72
21
73
15
74
0
42
0.000000001
43
0.0000000001
44
0.0000000001
40
0
40
0
40
0
40
0
40
0
40
0
40
0.10000000000000001
40
0.20000000000000001
40
0.30000000000000004
40
0.40000000000000002
40
0.5
40
0.59999999999999998
40
0.69999999999999996
40
0.79999999999999982
40
0.8999999999999998
40
1
40
1
40
1
40
1
40
1
40
1
41
1
41
1
41
1
41
1
41
1
41
1
41
1
41
1
41
1
41
1
41
1
41
1
41
1
41
1
41
1
10
-38.794452448485103
20
22.86888773030174
30
0
10
-38.194603659550793
20
22.269038941367473
30
0
10
-36.996099735778699
20
21.076741944505923
30
0
10
-35.201931065856996
20
19.310500073059625
30
0
10
-32.830476246029093
20
17.004659934291467
30
0
10
-29.981883467631167
20
14.233023829655945
30
0
10
-27.357336066752946
20
11.610249394276536
30
0
10
-25.07377713196389
20
9.1763407468944145
30
0
10
-23.232518318909765
20
6.9620266893635829
30
0
10
-21.897496399213523
20
4.9787058209282531
30
0
10
-21.047621465980413
20
3.1952482418105888
30
0
10
-20.68792519118638
20
1.8792691285238172
30
0
10
-20.559720055058541
20
0.92879480267106906
30
0
10
-20.531222920257228
20
0.30753212066575664
30
0
10
-20.531222920257228
20
-4.4703551971281286e-08
30
0
0
SPLINE
5
165
100
AcDbEntity
8
0
100
AcDbSpline
70
4
71
5
72
21
73
15
74
0
42
0.000000001
43
0.0000000001
44
0.0000000001
40
0
40
0
40
0
40
0
40
0
40
0
40
0.10000000000000001
40
0.20000000000000001
40
0.30000000000000004
40
0.40000000000000002
40
0.5
40
0.59999999999999998
40
0.69999999999999996
40
0.79999999999999982
40
0.8999999999999998
40
1
40
1
40
1
40
1
40
1
40
1
41
1
41
1
41
1
41
1
41
1
41
1
41
1
41
1
41
1
41
1
41
1
41
1
41
1
41
1
41
1
10
-37.190861310204269
20
-23.41757259134685
30
0
10
-36.560657913914994
20
-22.7873691950576
30
0
10
-35.325976682037833
20
-21.535118120610118
30
0
10
-33.551129752103193
20
-19.681211022960991
30
0
10
-31.33958542515364
20
-17.264096979803398
30
0
10
-28.842117493240931
20
-14.368915095458878
30
0
10
-26.629121430830747
20
-11.645871430851214
30
0
10
-24.725779732086917
20
-9.1423106393382128
30
0
10
-23.159571863001833
20
-6.8933560648043501
30
0
10
-21.953678643842913
20
-4.9095137585825421
30
0
10
-21.10958258174918
20
-3.1485676505394222
30
0
10
-20.712170158650984
20
-1.8559437713369853
30
0
10
-20.564124929840375
20
-0.9193750005159318
30
0
10
-20.531222920257193
20
-0.30481932519288879
30
0
10
-20.531222920257228
20
-4.4703551971281286e-08
30
0
0
SPLINE
5
166
100
AcDbEntity
8
0
100
AcDbSpline
70
4
71
5
72
21
73
15
74
0
42
0.000000001
43
0.0000000001
44
0.0000000001
40
0
40
0
40
0
40
0
40
0
40
0
40
0.10000000000000001
40
0.20000000000000001
40
0.30000000000000004
40
0.40000000000000002
40
0.5
40
0.59999999999999998
40
0.69999999999999996
40
0.79999999999999982
40
0.8999999999999998
40
1
40
1
40
1
40
1
40
1
40
1
41
1
41
1
41
1
41
1
41
1
41
1
41
1
41
1
41
1
41
1
41
1
41
1
41
1
41
1
41
1
10
38.794452448484229
20
22.868887730301836
30
0
10
38.194603659549919
20
22.269038941367537
30
0
10
36.996099735777733
20
21.076741944505951
30
0
10
35.201931065855661
20
19.310500073059259
30
0
10
32.830476246027303
20
17.004659934290732
30
0
10
29.981883467629125
20
14.233023829654957
30
0
10
27.357336066751152
20
11.61024939427573
30
0
10
25.073777131962522
20
9.1763407468939597
30
0
10
23.232518318908859
20
6.9620266893635474
30
0
10
21.897496399212866
20
4.9787058209284485
30
0
10
21.047621465979773
20
3.1952482418107664
30
0
10
20.687925191185634
20
1.8792691285239238
30
0
10
20.559720055057706
20
0.92879480267114012
30
0
10
20.531222920256376
20
0.30753212066580993
30
0
10
20.531222920256376
20
-4.4703516444144498e-08
30
0
0
SPLINE
5
167
100
AcDbEntity
8
0
100
AcDbSpline
70
4
71
5
72
21
73
15
74
0
42
0.000000001
43
0.0000000001
44
0.0000000001
40
0
40
0
40
0
40
0
40
0
40
0
40
0.10000000000000001
40
0.20000000000000001
40
0.30000000000000004
40
0.40000000000000002
40
0.5
40
0.59999999999999998
40
0.69999999999999996
40
0.79999999999999982
40
0.8999999999999998
40
1
40
1
40
1
40
1
40
1
40
1
41
1
41
1
41
1
41
1
41
1
41
1
41
1
41
1
41
1
41
1
41
1
41
1
41
1
41
1
41
1
10
37.190861310203474
20
-23.417572591346769
30
0
10
36.560657913914199
20
-22.787369195057501
30
0
10
35.325976682037066
20
-21.535118120609994
30
0
10
33.551129752102554
20
-19.681211022960724
30
0
10
31.339585425153231
20
-17.264096979803011
30
0
10
28.842117493240664
20
-14.368915095458473
30
0
10
26.62912143083048
20
-11.645871430850914
30
0
10
24.725779732086419
20
-9.1423106393380884
30
0
10
23.159571863001069
20
-6.8933560648043324
30
0
10
21.953678643841936
20
-4.9095137585825066
30
0
10
21.109582581748221
20
-3.1485676505393512
30
0
10
20.712170158650096
20
-1.8559437713368965
30
0
10
20.564124929839522
20
-0.9193750005158785
30
0
10
20.531222920256376
20
-0.30481932519285326
30
0
10
20.531222920256376
20
-4.4703516444144498e-08
30
0
0
ENDSEC
0
SECTION
2
OBJECTS
0
DICTIONARY
5
C
100
AcDbDictionary
3
ACAD_GROUP
350
D
3
ACAD_MLINESTYLE
350
17
0
DICTIONARY
5
D
100
AcDbDictionary
0
DICTIONARY
5
1A
330
C
100
AcDbDictionary
0
DICTIONARY
5
17
100
AcDbDictionary
0
ENDSEC
0
EOF
