0
SECTION
2
HEADER
9
$INSUNITS
70
4
9
$ACADVER
1
AC1014
9
$HANDSEED
5
FFFF
0
ENDSEC
0
SECTION
2
TABLES
0
TABLE
2
VPORT
5
8
100
AcDbSymbolTable
0
ENDTAB
0
TABLE
2
LTYPE
5
5
100
AcDbSymbolTable
0
LTYPE
5
14
100
AcDbSymbolTableRecord
100
AcDbLinetypeTableRecord
2
BYBLOCK
70
0
0
LTYPE
5
15
100
AcDbSymbolTableRecord
100
AcDbLinetypeTableRecord
2
BYLAYER
70
0
0
LTYPE
5
16
100
AcDbSymbolTableRecord
100
AcDbLinetypeTableRecord
2
DASHED
70
0
3
Dashed __ __ __ __ __ __ __ __ __ __ __ __ __ _
72
65
73
2
40
0.75
49
0.5
74
0
49
-0.25
74
0
0
ENDTAB
0
TABLE
2
LAYER
5
2
100
AcDbSymbolTable
70
2
0
LAYER
5
50
100
AcDbSymbolTableRecord
100
AcDbLayerTableRecord
2
0
70
0
62
7
6
CONTINUOUS
0
ENDTAB
0
TABLE
2
STYLE
5
3
100
AcDbSymbolTable
70
1
0
STYLE
5
11
100
AcDbSymbolTableRecord
100
AcDbTextStyleTableRecord
2
STANDARD
70
0
0
ENDTAB
0
TABLE
2
VIEW
5
6
100
AcDbSymbolTable
70
0
0
ENDTAB
0
TABLE
2
UCS
5
7
100
AcDbSymbolTable
70
0
0
ENDTAB
0
TABLE
2
APPID
5
9
100
AcDbSymbolTable
70
2
0
APPID
5
12
100
AcDbSymbolTableRecord
100
AcDbRegAppTableRecord
2
ACAD
70
0
0
ENDTAB
0
TABLE
2
DIMSTYLE
5
A
100
AcDbSymbolTable
70
1
0
ENDTAB
0
TABLE
2
BLOCK_RECORD
5
1
100
AcDbSymbolTable
70
1
0
BLOCK_RECORD
5
1F
100
AcDbSymbolTableRecord
100
AcDbBlockTableRecord
2
*MODEL_SPACE
0
BLOCK_RECORD
5
1B
100
AcDbSymbolTableRecord
100
AcDbBlockTableRecord
2
*PAPER_SPACE
0
ENDTAB
0
ENDSEC
0
SECTION
2
BLOCKS
0
BLOCK
5
20
100
AcDbEntity
100
AcDbBlockBegin
2
*MODEL_SPACE
0
ENDBLK
5
21
100
AcDbEntity
100
AcDbBlockEnd
0
BLOCK
5
1C
100
AcDbEntity
100
AcDbBlockBegin
2
*PAPER_SPACE
0
ENDBLK
5
1D
100
AcDbEntity
100
AcDbBlockEnd
0
ENDSEC
0
SECTION
2
ENTITIES
0
LINE
5
100
100
AcDbEntity
8
0
100
AcDbLine
10
13.57122168113321
20
144.63152224389654
30
0
11
13.57122168113321
21
144.63152224389654
31
0
0
CIRCLE
5
101
100
AcDbEntity
8
0
100
AcDbCircle
10
52.675421842699485
20
9.921166399293714
30
0
40
1.05
210
0
220
-0
230
1
0
CIRCLE
5
102
100
AcDbEntity
8
0
100
AcDbCircle
10
55.857402358038925
20
6.7391858839542742
30
0
40
2.2500000000000004
210
0
220
-0
230
1
0
SPLINE
5
103
100
AcDbEntity
8
0
100
AcDbSpline
70
4
71
5
72
41
73
35
74
0
42
0.000000001
43
0.0000000001
44
0.0000000001
40
0
40
0
40
0
40
0
40
0
40
0
40
0.033333333333333333
40
0.066666666666666666
40
0.10000000000000001
40
0.13333333333333333
40
0.16666666666666666
40
0.19999999999999998
40
0.23333333333333331
40
0.26666666666666666
40
0.29999999999999999
40
0.33333333333333331
40
0.36666666666666664
40
0.39999999999999997
40
0.43333333333333329
40
0.46666666666666662
40
0.49999999999999994
40
0.53333333333333333
40
0.56666666666666665
40
0.59999999999999998
40
0.6333333333333333
40
0.66666666666666663
40
0.69999999999999996
40
0.73333333333333328
40
0.76666666666666661
40
0.79999999999999993
40
0.83333333333333326
40
0.86666666666666659
40
0.89999999999999991
40
0.93333333333333324
40
0.96666666666666656
40
1
40
1
40
1
40
1
40
1
40
1
41
1
41
1
41
1
41
1
41
1
41
1
41
1
41
1
41
1
41
1
41
1
41
1
41
1
41
1
41
1
41
1
41
1
41
1
41
1
41
1
41
1
41
1
41
1
41
1
41
1
41
1
41
1
41
1
41
1
41
1
41
1
41
1
41
1
41
1
41
1
10
64.60524504277808
20
6.7391858839542751
30
0
10
64.602772997874482
20
6.8149766139759151
30
0
10
64.592063717050721
20
6.9822923290001482
30
0
10
64.558703585257376
20
7.2804741986171972
30
0
10
64.479934044838032
20
7.7570542626674888
30
0
10
64.324672370958751
20
8.4054042823560966
30
0
10
64.110797148841641
20
9.0216411618837036
30
0
10
63.832261988834901
20
9.5529652876697426
30
0
10
63.477544295992239
20
10.008698140365706
30
0
10
63.035379355045116
20
10.428180060975379
30
0
10
62.499773882437218
20
10.854983588154745
30
0
10
61.87553153470261
20
11.307989023546021
30
0
10
61.183131999661484
20
11.755905335891747
30
0
10
60.451794275833741
20
12.14192112597048
30
0
10
59.71298224297874
20
12.406833096617911
30
0
10
58.994020281022514
20
12.511369369208733
30
0
10
58.311098904082179
20
12.462044157026522
30
0
10
57.664116916055207
20
12.32666984322459
30
0
10
57.041046507448613
20
12.197622400772733
30
0
10
56.420972564725844
20
12.161525606811697
30
0
10
55.777561896074673
20
12.267730853555651
30
0
10
55.082303443994284
20
12.493761348532463
30
0
10
54.308690644194684
20
12.766764400523037
30
0
10
53.436895075757498
20
12.98852136017447
30
0
10
52.457485498167443
20
13.060825530151924
30
0
10
51.377517280937262
20
12.906324129207849
30
0
10
50.221460609445941
20
12.502026186553429
30
0
10
49.010955649080245
20
11.891140186742826
30
0
10
47.768638544534532
20
11.156837576740287
30
0
10
46.515058257743185
20
10.407962874431307
30
0
10
45.268427921502727
20
9.7600639311215005
30
0
10
44.288202306411904
20
9.4068433653497472
30
0
10
43.566965583453133
20
9.2696356419088062
30
0
10
43.092811618701234
20
9.2391684261925988
30
0
10
42.857402358038925
20
9.2391858839542707
30
0
0
CIRCLE
5
104
100
AcDbEntity
8
0
100
AcDbCircle
10
12.75000000000002
20
12.749999999999995
30
0
40
1.0499999999999998
210
0
220
0
230
1
0
CIRCLE
5
105
100
AcDbEntity
8
0
100
AcDbCircle
10
12.75000000000002
20
-12.750000000000007
30
0
40
1.05
210
0
220
0
230
1
0
LINE
5
106
100
AcDbEntity
8
0
100
AcDbLine
10
19.963615667098914
20
-9.3570139483746591
30
0
11
25.124362029045844
21
-14.517760310352159
31
0
0
CIRCLE
5
107
100
AcDbEntity
8
0
100
AcDbCircle
10
-12.750000000000011
20
12.750000000000023
30
0
40
1.05
210
0
220
0
230
1
0
SPLINE
5
108
100
AcDbEntity
8
0
100
AcDbSpline
70
4
71
5
72
26
73
20
74
0
42
0.000000001
43
0.0000000001
44
0.0000000001
40
0
40
0
40
0
40
0
40
0
40
0
40
0.066666666666666666
40
0.13333333333333333
40
0.20000000000000001
40
0.26666666666666666
40
0.33333333333333331
40
0.39999999999999997
40
0.46666666666666662
40
0.53333333333333333
40
0.59999999999999998
40
0.66666666666666663
40
0.73333333333333328
40
0.79999999999999993
40
0.86666666666666659
40
0.93333333333333324
40
1
40
1
40
1
40
1
40
1
40
1
41
1
41
1
41
1
41
1
41
1
41
1
41
1
41
1
41
1
41
1
41
1
41
1
41
1
41
1
41
1
41
1
41
1
41
1
41
1
41
1
10
60.98114800895101
20
6.7391858839542751
30
0
10
60.98114800895101
20
6.8860160731799382
30
0
10
60.979567002702282
20
7.1793950761104943
30
0
10
60.972433965103022
20
7.6186370559012593
30
0
10
60.962328190326176
20
8.1894459300115638
30
0
10
60.992508011304921
20
8.809488449625956
30
0
10
61.112928779176187
20
9.2564262966301438
30
0
10
61.347657319108293
20
9.4733940307378361
30
0
10
61.689930325443626
20
9.4411848215287932
30
0
10
62.044481076044505
20
9.2424283755328638
30
0
10
62.349692149745756
20
8.9529821490802988
30
0
10
62.585612421187086
20
8.6227270700855989
30
0
10
62.75280555618086
20
8.2869166714210927
30
0
10
62.86584623099057
20
7.9639568601815913
30
0
10
62.93983336026696
20
7.6579409609450941
30
0
10
62.985386416004481
20
7.3611274109948841
30
0
10
63.005039095006765
20
7.1208608283896266
30
0
10
63.012207648506909
20
6.9335108866215478
30
0
10
63.013800936428751
20
6.8046253277436239
30
0
10
63.013800936428751
20
6.7391858839542751
30
0
0
CIRCLE
5
109
100
AcDbEntity
8
0
100
AcDbCircle
10
52.675421842699485
20
3.5572053686148299
30
0
40
1.05
210
0
220
0
230
1
0
CIRCLE
5
110
100
AcDbEntity
8
0
100
AcDbCircle
10
59.039382873378372
20
3.5572053686148308
30
0
40
1.05
210
0
220
0
230
1
0
CIRCLE
5
111
100
AcDbEntity
8
0
100
AcDbCircle
10
59.039382873378372
20
9.921166399293714
30
0
40
1.05
210
0
220
0
230
1
0
CIRCLE
5
112
100
AcDbEntity
8
0
100
AcDbCircle
10
23.356601718047742
20
-16.28553390575188
30
0
40
1.0000000000000009
210
0
220
0
230
1
0
CIRCLE
5
113
100
AcDbEntity
8
0
100
AcDbCircle
10
-12.750000000000005
20
12.750000000000018
30
0
40
1.05
210
0
220
0
230
1
0
CIRCLE
5
114
100
AcDbEntity
8
0
100
AcDbCircle
10
-12.750000000000011
20
12.750000000000023
30
0
40
1.05
210
0
220
0
230
1
0
CIRCLE
5
115
100
AcDbEntity
8
0
100
AcDbCircle
10
16.285533905751887
20
-23.356601718047724
30
0
40
1.0000000000000009
210
0
220
0
230
1
0
CIRCLE
5
116
100
AcDbEntity
8
0
100
AcDbCircle
10
12.75000000000002
20
-12.750000000000007
30
0
40
1.05
210
0
220
0
230
1
0
LINE
5
117
100
AcDbEntity
8
0
100
AcDbLine
10
9.3570139483746804
20
-19.96361566709918
30
0
11
14.517760310806761
21
-25.124362028591243
31
0
0
CIRCLE
5
118
100
AcDbEntity
8
0
100
AcDbCircle
10
-9.3912427893639148
20
20.351397897755405
30
0
40
1.0499999999999998
210
0
220
0
230
1
0
CIRCLE
5
119
100
AcDbEntity
8
0
100
AcDbCircle
10
-20.351397897755398
20
9.3912427893639148
30
0
40
1.0499999999999998
210
0
220
0
230
1
0
LINE
5
120
100
AcDbEntity
8
0
100
AcDbLine
10
-19.11396103067894
20
29.013455967290611
30
0
11
-29.013455967290611
21
19.113961030678936
31
0
0
LINE
5
121
100
AcDbEntity
8
0
100
AcDbLine
10
-19.11396103067894
20
29.013455967290611
30
0
11
-17.121571634495446
21
29.18776745278592
31
0
0
LINE
5
122
100
AcDbEntity
8
0
100
AcDbLine
10
-17.121571634495446
20
29.18776745278592
30
0
11
-11.250517708010008
21
23.316713526300457
31
0
0
SPLINE
5
123
100
AcDbEntity
8
0
100
AcDbSpline
70
4
71
5
72
16
73
10
74
0
42
0.000000001
43
0.0000000001
44
0.0000000001
40
0
40
0
40
0
40
0
40
0
40
0
40
0.20000000000000001
40
0.40000000000000002
40
0.60000000000000009
40
0.80000000000000004
40
1
40
1
40
1
40
1
40
1
40
1
41
1
41
1
41
1
41
1
41
1
41
1
41
1
41
1
41
1
41
1
10
-11.250517708010008
20
23.316713526300457
30
0
10
-11.2214060400301
20
23.287601858320546
30
0
10
-11.140028907130507
20
23.236905277486905
30
0
10
-10.948569420527258
20
23.183417762910107
30
0
10
-10.578076809574402
20
23.148745630602239
30
0
10
-10.018483228363451
20
23.130160302225224
30
0
10
-9.5695544121380838
20
23.104057965972672
30
0
10
-9.266922804151509
20
23.062716913657511
30
0
10
-9.0855700733809996
20
23.022943483444038
30
0
10
-9.0000001341104525
20
23.000000342726715
30
0
0
ARC
5
124
100
AcDbEntity
8
0
100
AcDbCircle
10
10.887722814465189
20
13.392651477230658
30
0
40
2.2500065759412422
210
0
220
0
230
1
100
AcDbArc
50
276.92373497969874
51
276.92720314854427
0
ARC
5
125
100
AcDbEntity
8
0
100
AcDbCircle
10
-12.749999516316965
20
-12.749999516316953
30
0
40
2.2500066919242077
210
0
220
-0
230
1
100
AcDbArc
50
44.9981152695022
51
45.001651739935745
0
CIRCLE
5
126
100
AcDbEntity
8
0
100
AcDbCircle
10
-12.749999999999984
20
-12.750000000000007
30
0
40
1.0499999999999998
210
0
220
0
230
1
0
LINE
5
127
100
AcDbEntity
8
0
100
AcDbLine
10
-29.187767452785913
20
17.121571634495446
30
0
11
-23.316713526300443
21
11.250517708010017
31
0
0
SPLINE
5
128
100
AcDbEntity
8
0
100
AcDbSpline
70
4
71
5
72
16
73
10
74
0
42
0.000000001
43
0.0000000001
44
0.0000000001
40
0
40
0
40
0
40
0
40
0
40
0
40
0.20000000000000001
40
0.40000000000000002
40
0.60000000000000009
40
0.80000000000000004
40
1
40
1
40
1
40
1
40
1
40
1
41
1
41
1
41
1
41
1
41
1
41
1
41
1
41
1
41
1
41
1
10
-23.316713526300443
20
11.250517708010017
30
0
10
-23.287601858320532
20
11.221406040030107
30
0
10
-23.236905277486933
20
11.140028907130493
30
0
10
-23.183417762910313
20
10.948569420527166
30
0
10
-23.148745630602519
20
10.578076809574274
30
0
10
-23.130160302225406
20
10.018483228363358
30
0
10
-23.104057965972729
20
9.5695544121380554
30
0
10
-23.062716913657511
20
9.2669228041515126
30
0
10
-23.022943483444021
20
9.0855700733810068
30
0
10
-23.0000003427267
20
9.0000001341104596
30
0
0
LINE
5
129
100
AcDbEntity
8
0
100
AcDbLine
10
-29.0134559672906
20
19.113961030678944
30
0
11
-29.187767452785913
21
17.121571634495446
31
0
0
LINE
5
130
100
AcDbEntity
8
0
100
AcDbLine
10
18.053300858528644
20
-25.124368670858157
30
0
11
25.124368671141557
21
-18.053300858879361
31
0
0
ARC
5
131
100
AcDbEntity
8
0
100
AcDbCircle
10
16.285533905683241
20
-23.356601717979082
30
0
40
2.4999999997036237
210
0
220
0
230
1
100
AcDbArc
50
224.99978471928148
51
314.9999999994543
0
ARC
5
132
100
AcDbEntity
8
0
100
AcDbCircle
10
23.356601717979096
20
-16.285533905683231
30
0
40
2.5000000003011245
210
0
220
0
230
1
100
AcDbArc
50
-45.000000000545633
51
45.000215280718493
0
LINE
5
133
100
AcDbEntity
8
0
100
AcDbLine
10
14.534468188920226
20
-21.604797782499162
30
0
11
14.505421763044019
21
-21.633946903283391
31
0
0
SPLINE
5
134
100
AcDbEntity
8
0
100
AcDbSpline
70
4
71
5
72
41
73
35
74
0
42
0.000000001
43
0.0000000001
44
0.0000000001
40
0
40
0
40
0
40
0
40
0
40
0
40
0.033333333333333333
40
0.066666666666666666
40
0.10000000000000001
40
0.13333333333333333
40
0.16666666666666666
40
0.19999999999999998
40
0.23333333333333331
40
0.26666666666666666
40
0.29999999999999999
40
0.33333333333333331
40
0.36666666666666664
40
0.39999999999999997
40
0.43333333333333329
40
0.46666666666666662
40
0.49999999999999994
40
0.53333333333333333
40
0.56666666666666665
40
0.59999999999999998
40
0.6333333333333333
40
0.66666666666666663
40
0.69999999999999996
40
0.73333333333333328
40
0.76666666666666661
40
0.79999999999999993
40
0.83333333333333326
40
0.86666666666666659
40
0.89999999999999991
40
0.93333333333333324
40
0.96666666666666656
40
1
40
1
40
1
40
1
40
1
40
1
41
1
41
1
41
1
41
1
41
1
41
1
41
1
41
1
41
1
41
1
41
1
41
1
41
1
41
1
41
1
41
1
41
1
41
1
41
1
41
1
41
1
41
1
41
1
41
1
41
1
41
1
41
1
41
1
41
1
41
1
41
1
41
1
41
1
41
1
41
1
10
64.60524504277808
20
6.7391858839542751
30
0
10
64.602772997874482
20
6.663395153932635
30
0
10
64.592063717050706
20
6.4960794389083727
30
0
10
64.558703585257348
20
6.1978975692912108
30
0
10
64.479934044837947
20
5.7213175052408793
30
0
10
64.32467237095868
20
5.0729674855523559
30
0
10
64.110797148841641
20
4.4567306060248582
30
0
10
63.832261988834901
20
3.9254064802389226
30
0
10
63.477544295992246
20
3.4696736275429703
30
0
10
63.035379355045066
20
3.0501917069332753
30
0
10
62.499773882437204
20
2.6233881797537917
30
0
10
61.875531534702624
20
2.1703827443624486
30
0
10
61.183131999661484
20
1.7224664320166605
30
0
10
60.45179427583372
20
1.336450641937966
30
0
10
59.712982242978718
20
1.0715386712906163
30
0
10
58.994020281022514
20
0.96700239869982929
30
0
10
58.311098904082215
20
1.0163276108820263
30
0
10
57.664116916055193
20
1.1517019246839471
30
0
10
57.041046507448584
20
1.2807493671357928
30
0
10
56.42097256472583
20
1.3168461610968585
30
0
10
55.777561896074744
20
1.2106409143528905
30
0
10
55.082303443994419
20
0.98461041937608962
30
0
10
54.308690644194783
20
0.71160736738549768
30
0
10
53.436895075757533
20
0.48985040773406652
30
0
10
52.457485498167422
20
0.4175462377566268
30
0
10
51.377517280937269
20
0.57204763870069775
30
0
10
50.22146060944597
20
0.97634558135509653
30
0
10
49.010955649080259
20
1.5872315811656623
30
0
10
47.768638544534554
20
2.3215341911681602
30
0
10
46.515058257743192
20
3.070408893477119
30
0
10
45.268427921502735
20
3.7183078367869493
30
0
10
44.288202306411904
20
4.0715284025587186
30
0
10
43.566965583453133
20
4.2087361259997191
30
0
10
43.092811618701234
20
4.2392033417159407
30
0
10
42.857402358038925
20
4.239185883954268
30
0
0
SPLINE
5
135
100
AcDbEntity
8
0
100
AcDbSpline
70
4
71
5
72
21
73
15
74
0
42
0.000000001
43
0.0000000001
44
0.0000000001
40
0
40
0
40
0
40
0
40
0
40
0
40
0.10000000000000001
40
0.20000000000000001
40
0.30000000000000004
40
0.40000000000000002
40
0.5
40
0.59999999999999998
40
0.69999999999999996
40
0.79999999999999993
40
0.89999999999999991
40
1
40
1
40
1
40
1
40
1
40
1
41
1
41
1
41
1
41
1
41
1
41
1
41
1
41
1
41
1
41
1
41
1
41
1
41
1
41
1
41
1
10
42.857402358038925
20
9.2391858839542707
30
0
10
41.955845153222128
20
9.2391858839542707
30
0
10
40.176817560196298
20
9.2380706518178517
30
0
10
37.58053718027125
20
9.2330559475715006
30
0
10
34.268889654776224
20
9.2280708341386521
30
0
10
30.415683205901036
20
9.2729611052536516
30
0
10
26.899665432640461
20
9.4307749043765092
30
0
10
23.77644107328015
20
9.7638302680122724
30
0
10
21.090484625190737
20
10.31879656330722
30
0
10
18.858624658716757
20
11.111694007930051
30
0
10
17.034493439841352
20
12.098301777280904
30
0
10
15.835442149038311
20
12.978970889318655
30
0
10
15.048705348514318
20
13.657360692646304
30
0
10
14.569368645539802
20
14.112614426997027
30
0
10
14.340991536268415
20
14.340991536268415
30
0
0
SPLINE
5
136
100
AcDbEntity
8
0
100
AcDbSpline
70
4
71
5
72
26
73
20
74
0
42
0.000000001
43
0.0000000001
44
0.0000000001
40
0
40
0
40
0
40
0
40
0
40
0
40
0.066666666666666666
40
0.13333333333333333
40
0.20000000000000001
40
0.26666666666666666
40
0.33333333333333331
40
0.39999999999999997
40
0.46666666666666662
40
0.53333333333333333
40
0.59999999999999998
40
0.66666666666666663
40
0.73333333333333328
40
0.79999999999999993
40
0.86666666666666659
40
0.93333333333333324
40
1
40
1
40
1
40
1
40
1
40
1
41
1
41
1
41
1
41
1
41
1
41
1
41
1
41
1
41
1
41
1
41
1
41
1
41
1
41
1
41
1
41
1
41
1
41
1
41
1
41
1
10
60.98114800895101
20
6.7391858839542751
30
0
10
60.98114800895101
20
6.5923556947286119
30
0
10
60.979567002702282
20
6.2989766917980559
30
0
10
60.972433965103022
20
5.8597347120072909
30
0
10
60.962328190326176
20
5.2889258378969863
30
0
10
60.992508011304921
20
4.6688833182825951
30
0
10
61.112928779176187
20
4.2219454712784064
30
0
10
61.347657319108293
20
4.004977737170714
30
0
10
61.689930325443626
20
4.0371869463797569
30
0
10
62.044481076044505
20
4.2359433923756864
30
0
10
62.349692149745756
20
4.5253896188282505
30
0
10
62.585612421187086
20
4.8556446978229513
30
0
10
62.75280555618086
20
5.1914550964874584
30
0
10
62.86584623099057
20
5.5144149077269597
30
0
10
62.93983336026696
20
5.8204308069634569
30
0
10
62.985386416004481
20
6.117244356913667
30
0
10
63.005039095006765
20
6.3575109395189244
30
0
10
63.012207648506909
20
6.5448608812870033
30
0
10
63.013800936428751
20
6.6737464401649271
30
0
10
63.013800936428751
20
6.739185883954276
30
0
0
SPLINE
5
137
100
AcDbEntity
8
0
100
AcDbSpline
70
4
71
5
72
21
73
15
74
0
42
0.000000001
43
0.0000000001
44
0.0000000001
40
0
40
0
40
0
40
0
40
0
40
0
40
0.10000000000000001
40
0.20000000000000001
40
0.30000000000000004
40
0.40000000000000002
40
0.5
40
0.59999999999999998
40
0.69999999999999996
40
0.79999999999999993
40
0.89999999999999991
40
1
40
1
40
1
40
1
40
1
40
1
41
1
41
1
41
1
41
1
41
1
41
1
41
1
41
1
41
1
41
1
41
1
41
1
41
1
41
1
41
1
10
42.857402358038925
20
4.2391858839542751
30
0
10
42.190099528243586
20
4.2391858839542751
30
0
10
40.782707401571692
20
4.2297105277120979
30
0
10
38.453464087719233
20
4.1867966501804634
30
0
10
34.949026500377862
20
4.0874459964057488
30
0
10
30.160344523002287
20
3.9196153785223196
30
0
10
25.326669189706127
20
3.7052967612981593
30
0
10
20.959646981253787
20
3.2626147738462938
30
0
10
17.574780462561158
20
2.3633083929734005
30
0
10
16.000720519490045
20
0.17885885867854284
30
0
10
16.305419112307192
20
-3.2262612140599387
30
0
10
17.538272437369137
20
-6.1320158179020421
30
0
10
18.704146816872203
20
-7.9522014793837537
30
0
10
19.534825906633962
20
-8.9282241879508319
30
0
10
19.963615667098914
20
-9.3570139483746591
30
0
0
SPLINE
5
138
100
AcDbEntity
8
0
100
AcDbSpline
70
4
71
5
72
41
73
35
74
0
42
0.000000001
43
0.0000000001
44
0.0000000001
40
0
40
0
40
0
40
0
40
0
40
0
40
0.033333333333333333
40
0.066666666666666666
40
0.10000000000000001
40
0.13333333333333333
40
0.16666666666666666
40
0.19999999999999998
40
0.23333333333333331
40
0.26666666666666666
40
0.29999999999999999
40
0.33333333333333331
40
0.36666666666666664
40
0.39999999999999997
40
0.43333333333333329
40
0.46666666666666662
40
0.49999999999999994
40
0.53333333333333333
40
0.56666666666666665
40
0.59999999999999998
40
0.6333333333333333
40
0.66666666666666663
40
0.69999999999999996
40
0.73333333333333328
40
0.76666666666666661
40
0.79999999999999993
40
0.83333333333333326
40
0.86666666666666659
40
0.89999999999999991
40
0.93333333333333324
40
0.96666666666666656
40
1
40
1
40
1
40
1
40
1
40
1
41
1
41
1
41
1
41
1
41
1
41
1
41
1
41
1
41
1
41
1
41
1
41
1
41
1
41
1
41
1
41
1
41
1
41
1
41
1
41
1
41
1
41
1
41
1
41
1
41
1
41
1
41
1
41
1
41
1
41
1
41
1
41
1
41
1
41
1
41
1
10
7.7140013547822273
20
65.329801798149106
30
0
10
7.7906330626568767
20
65.32730232330762
30
0
10
7.9599998747044811
20
65.316432108479304
30
0
10
8.2623685105337739
20
65.282512139076815
30
0
10
8.7459801547629414
20
65.202305431889528
30
0
10
9.4022162170813601
20
65.043777087524603
30
0
10
10.022505053175459
20
64.824798621690206
30
0
10
10.55459490336953
20
64.538943923996669
30
0
10
11.011192361367453
20
64.174636020172414
30
0
10
11.434331767369008
20
63.721021941996874
30
0
10
11.868902744264929
20
63.17280396208001
30
0
10
12.330300648195152
20
62.536042564451179
30
0
10
12.781363918302377
20
61.832153078441465
30
0
10
13.161014289662337
20
61.090657101118417
30
0
10
13.408625234776819
20
60.342996209640049
30
0
10
13.487510698879294
20
59.616345032874762
30
0
10
13.4148174235032
20
58.926532674711325
30
0
10
13.269660968612641
20
58.274149811649508
30
0
10
13.150549080361337
20
57.647939220065936
30
0
10
13.144307619181738
20
57.02670990098806
30
0
10
13.288292077037116
20
56.381542811775411
30
0
10
13.541135975627231
20
55.678362086567475
30
0
10
13.815487417189921
20
54.884020874656187
30
0
10
14.006269827050495
20
53.973281750135072
30
0
10
14.01885873777837
20
52.933065441627335
30
0
10
13.800970514140612
20
51.773647838863852
30
0
10
13.363206841284228
20
50.521429953801452
30
0
10
12.756122499721439
20
49.202631341361439
30
0
10
12.06001025805376
20
47.846294463943906
30
0
10
11.370268409060714
20
46.48019363050571
30
0
10
10.784814169679935
20
45.1297591243436
30
0
10
10.469498309739084
20
44.078504786017575
30
0
10
10.347452073762655
20
43.312783378573499
30
0
10
10.320354978629243
20
42.813119268727348
30
0
10
10.32037330542439
20
42.565991522503737
30
0
0
SPLINE
5
139
100
AcDbEntity
8
0
100
AcDbSpline
70
4
71
5
72
21
73
15
74
0
42
0.000000001
43
0.0000000001
44
0.0000000001
40
0
40
0
40
0
40
0
40
0
40
0
40
0.10000000000000001
40
0.20000000000000001
40
0.30000000000000004
40
0.40000000000000002
40
0.5
40
0.59999999999999998
40
0.69999999999999996
40
0.79999999999999993
40
0.89999999999999991
40
1
40
1
40
1
40
1
40
1
40
1
41
1
41
1
41
1
41
1
41
1
41
1
41
1
41
1
41
1
41
1
41
1
41
1
41
1
41
1
41
1
10
10.32037330542439
20
42.565991522503737
30
0
10
10.298410180854345
20
41.684931446296304
30
0
10
10.247124114566034
20
39.944056874457615
30
0
10
10.148121906785905
20
37.396482859290664
30
0
10
9.9851435189376723
20
34.133711409011433
30
0
10
9.8047370153709714
20
30.320107075650469
30
0
10
9.7427404305189889
20
26.828706313297253
30
0
10
9.8943200668975244
20
23.721562042111483
30
0
10
10.33071518484682
20
21.048458036166657
30
0
10
11.077067212418148
20
18.829319091169332
30
0
10
12.070220555432172
20
17.017610330131991
30
0
10
12.970931524805316
20
15.827137584991268
30
0
10
13.657822267858711
20
15.045272519377448
30
0
10
14.113621590618139
20
14.568361481918689
30
0
10
14.340991536268417
20
14.340991536268412
30
0
0
SPLINE
5
140
100
AcDbEntity
8
0
100
AcDbSpline
70
4
71
5
72
41
73
35
74
0
42
0.000000001
43
0.0000000001
44
0.0000000001
40
0
40
0
40
0
40
0
40
0
40
0
40
0.033333333333333333
40
0.066666666666666666
40
0.10000000000000001
40
0.13333333333333333
40
0.16666666666666666
40
0.19999999999999998
40
0.23333333333333331
40
0.26666666666666666
40
0.29999999999999999
40
0.33333333333333331
40
0.36666666666666664
40
0.39999999999999997
40
0.43333333333333329
40
0.46666666666666662
40
0.49999999999999994
40
0.53333333333333333
40
0.56666666666666665
40
0.59999999999999998
40
0.6333333333333333
40
0.66666666666666663
40
0.69999999999999996
40
0.73333333333333328
40
0.76666666666666661
40
0.79999999999999993
40
0.83333333333333326
40
0.86666666666666659
40
0.89999999999999991
40
0.93333333333333324
40
0.96666666666666656
40
1
40
1
40
1
40
1
40
1
40
1
41
1
41
1
41
1
41
1
41
1
41
1
41
1
41
1
41
1
41
1
41
1
41
1
41
1
41
1
41
1
41
1
41
1
41
1
41
1
41
1
41
1
41
1
41
1
41
1
41
1
41
1
41
1
41
1
41
1
41
1
41
1
41
1
41
1
41
1
41
1
10
7.7140013547822273
20
65.329801798149106
30
0
10
7.6379382063938372
20
65.327320867852322
30
0
10
7.4699402376088209
20
65.31654622180794
30
0
10
7.1703218501962169
20
65.282945157274938
30
0
10
6.6913023136859771
20
65.203592081087407
30
0
10
6.0403405376922761
20
65.04724105739416
30
0
10
5.4230669149312885
20
64.831939083284752
30
0
10
4.8920846636954565
20
64.551484915921719
30
0
10
4.4365879514563655
20
64.194040225247335
30
0
10
4.0158904460501166
20
63.748124633943789
30
0
10
3.5856700829645827
20
63.207743598083319
30
0
10
3.128243085611599
20
62.57820632640837
30
0
10
2.67758190592851
20
61.880885824875676
30
0
10
2.2928794735007028
20
61.14582876935863
30
0
10
2.0346098480964243
20
60.405047716342686
30
0
10
1.9414383796174774
20
59.685914404127132
30
0
10
2.0025569023330503
20
59.003741296245209
30
0
10
2.1441680464263388
20
58.356946351717582
30
0
10
2.2695941658484884
20
57.732120223171293
30
0
10
2.2909223806100516
20
57.107453954221299
30
0
10
2.1636417069002056
20
56.45672912209406
30
0
10
1.9211663432713213
20
55.75303612991199
30
0
10
1.6463791356169863
20
54.971609932683656
30
0
10
1.4413542582006809
20
54.092599607572623
30
0
10
1.3991955379833922
20
53.103946718874091
30
0
10
1.5722155920677787
20
52.004208413446833
30
0
10
1.94795212420882
20
50.80574671879824
30
0
10
2.4802103570396734
20
49.5309820676638
30
0
10
3.0957239084854442
20
48.20876653575035
30
0
10
3.7082254712817897
20
46.870818369312055
30
0
10
4.2292888471466741
20
45.548171510840064
30
0
10
4.5102672472480068
20
44.52373604079898
30
0
10
4.6190510460906911
20
43.782902720512794
30
0
10
4.6432019731084022
20
43.302241403637183
30
0
10
4.6431843956172436
20
43.06521765020905
30
0
0
CIRCLE
5
141
100
AcDbEntity
8
0
100
AcDbCircle
10
4.5320208394427794
20
53.399978598070504
30
0
40
1.05
210
0
220
0
230
1
0
CIRCLE
5
142
100
AcDbEntity
8
0
100
AcDbCircle
10
10.895981870121656
20
53.399978598070504
30
0
40
1.05
210
0
220
-0
230
1
0
CIRCLE
5
143
100
AcDbEntity
8
0
100
AcDbCircle
10
7.7140013547822184
20
56.581959113409937
30
0
40
2.2500000000000004
210
0
220
-0
230
1
0
CIRCLE
5
144
100
AcDbEntity
8
0
100
AcDbCircle
10
10.895981870121664
20
59.763939628749384
30
0
40
1.05
210
0
220
0
230
1
0
CIRCLE
5
145
100
AcDbEntity
8
0
100
AcDbCircle
10
4.5320208394427794
20
59.763939628749384
30
0
40
1.05
210
0
220
0
230
1
0
SPLINE
5
146
100
AcDbEntity
8
0
100
AcDbSpline
70
4
71
5
72
26
73
20
74
0
42
0.000000001
43
0.0000000001
44
0.0000000001
40
0
40
0
40
0
40
0
40
0
40
0
40
0.066666666666666666
40
0.13333333333333333
40
0.20000000000000001
40
0.26666666666666666
40
0.33333333333333331
40
0.39999999999999997
40
0.46666666666666662
40
0.53333333333333333
40
0.59999999999999998
40
0.66666666666666663
40
0.73333333333333328
40
0.79999999999999993
40
0.86666666666666659
40
0.93333333333333324
40
1
40
1
40
1
40
1
40
1
40
1
41
1
41
1
41
1
41
1
41
1
41
1
41
1
41
1
41
1
41
1
41
1
41
1
41
1
41
1
41
1
41
1
41
1
41
1
41
1
41
1
10
7.7140013547822361
20
61.705704764322022
30
0
10
7.567171165556573
20
61.705704764322022
30
0
10
7.2737921626259725
20
61.704123758073344
30
0
10
6.8345501828350006
20
61.696990720474517
30
0
10
6.2637413087245344
20
61.686884945697962
30
0
10
5.6436987891101182
20
61.717064766676721
30
0
10
5.1967609421061356
20
61.837485534547632
30
0
10
4.9797932079986822
20
62.072214074479319
30
0
10
5.0120024172077304
20
62.414487080814581
30
0
10
5.2107588632035817
20
62.769037831415737
30
0
10
5.5002050896561174
20
63.074248905117159
30
0
10
5.8304601686508484
20
63.310169176558482
30
0
10
6.1662705673154026
20
63.477362311552014
30
0
10
6.489230378554927
20
63.59040298636144
30
0
10
6.7952462777914269
20
63.66439011563773
30
0
10
7.0920598277416094
20
63.709943171375315
30
0
10
7.3323264103468686
20
63.729595850377699
30
0
10
7.5196763521149563
20
63.736764403877913
30
0
10
7.6485619109928873
20
63.738357691799756
30
0
10
7.7140013547822361
20
63.738357691799756
30
0
0
SPLINE
5
147
100
AcDbEntity
8
0
100
AcDbSpline
70
4
71
5
72
26
73
20
74
0
42
0.000000001
43
0.0000000001
44
0.0000000001
40
0
40
0
40
0
40
0
40
0
40
0
40
0.066666666666666666
40
0.13333333333333333
40
0.20000000000000001
40
0.26666666666666666
40
0.33333333333333331
40
0.39999999999999997
40
0.46666666666666662
40
0.53333333333333333
40
0.59999999999999998
40
0.66666666666666663
40
0.73333333333333328
40
0.79999999999999993
40
0.86666666666666659
40
0.93333333333333324
40
1
40
1
40
1
40
1
40
1
40
1
41
1
41
1
41
1
41
1
41
1
41
1
41
1
41
1
41
1
41
1
41
1
41
1
41
1
41
1
41
1
41
1
41
1
41
1
41
1
41
1
10
7.7140013547822361
20
61.705704764322022
30
0
10
7.8608315440078993
20
61.705704764322022
30
0
10
8.1542105469384563
20
61.704123758073344
30
0
10
8.5934525267291964
20
61.69699072047451
30
0
10
9.1642614008394965
20
61.68688494569799
30
0
10
9.7843039204538922
20
61.717064766676742
30
0
10
10.231241767458105
20
61.83748553454766
30
0
10
10.448209501565772
20
62.072214074479284
30
0
10
10.416000292356728
20
62.414487080814553
30
0
10
10.217243846360809
20
62.769037831415694
30
0
10
9.9277976199082438
20
63.074248905117187
30
0
10
9.5975425409135475
20
63.310169176558574
30
0
10
9.2617321422490324
20
63.477362311552092
30
0
10
8.9387723310095417
20
63.59040298636139
30
0
10
8.6327564317730694
20
63.664390115637573
30
0
10
8.3359428818228842
20
63.709943171375237
30
0
10
8.0956762992176117
20
63.729595850377684
30
0
10
7.9083263574495106
20
63.736764403877913
30
0
10
7.7794407985715841
20
63.738357691799756
30
0
10
7.7140013547822361
20
63.738357691799756
30
0
0
SPLINE
5
148
100
AcDbEntity
8
0
100
AcDbSpline
70
4
71
5
72
21
73
15
74
0
42
0.000000001
43
0.0000000001
44
0.0000000001
40
0
40
0
40
0
40
0
40
0
40
0
40
0.10000000000000001
40
0.20000000000000001
40
0.30000000000000004
40
0.40000000000000002
40
0.5
40
0.59999999999999998
40
0.69999999999999996
40
0.79999999999999993
40
0.89999999999999991
40
1
40
1
40
1
40
1
40
1
40
1
41
1
41
1
41
1
41
1
41
1
41
1
41
1
41
1
41
1
41
1
41
1
41
1
41
1
41
1
41
1
10
4.6431843956172436
20
43.06521765020905
30
0
10
4.6723492900011534
20
42.269693189643853
30
0
10
4.7118313340745157
20
40.694576983665776
30
0
10
4.7144322129411549
20
38.37992373031237
30
0
10
4.6159926576231323
20
35.363274129453451
30
0
10
4.3554345598967368
20
31.633401998023306
30
0
10
3.9642167115215532
20
27.92485638670825
30
0
10
3.3554731118594656
20
24.447914982257011
30
0
10
2.3650987156026826
20
21.586702883618582
30
0
10
0.55065398243789798
20
20.445784634987877
30
0
10
-2.1027229360753856
20
20.895108393552992
30
0
10
-4.7106633516144827
20
21.86411923962126
30
0
10
-6.8153465828299336
20
22.518548375008706
30
0
10
-8.2641615076278292
20
22.855980133681115
30
0
10
-9.0000001341104525
20
23.000000342726715
30
0
0
SPLINE
5
149
100
AcDbEntity
8
0
100
AcDbSpline
70
4
71
5
72
41
73
35
74
0
42
0.000000001
43
0.0000000001
44
0.0000000001
40
0
40
0
40
0
40
0
40
0
40
0
40
0.033333333333333333
40
0.066666666666666666
40
0.10000000000000001
40
0.13333333333333333
40
0.16666666666666666
40
0.19999999999999998
40
0.23333333333333331
40
0.26666666666666666
40
0.29999999999999999
40
0.33333333333333331
40
0.36666666666666664
40
0.39999999999999997
40
0.43333333333333329
40
0.46666666666666662
40
0.49999999999999994
40
0.53333333333333333
40
0.56666666666666665
40
0.59999999999999998
40
0.6333333333333333
40
0.66666666666666663
40
0.69999999999999996
40
0.73333333333333328
40
0.76666666666666661
40
0.79999999999999993
40
0.83333333333333326
40
0.86666666666666659
40
0.89999999999999991
40
0.93333333333333324
40
0.96666666666666656
40
1
40
1
40
1
40
1
40
1
40
1
41
1
41
1
41
1
41
1
41
1
41
1
41
1
41
1
41
1
41
1
41
1
41
1
41
1
41
1
41
1
41
1
41
1
41
1
41
1
41
1
41
1
41
1
41
1
41
1
41
1
41
1
41
1
41
1
41
1
41
1
41
1
41
1
41
1
41
1
41
1
10
-6.7391858839542493
20
-64.60524504277808
30
0
10
-6.8149766139758894
20
-64.602772997874467
30
0
10
-6.9822923290001224
20
-64.592063717050706
30
0
10
-7.2804741986171715
20
-64.558703585257376
30
0
10
-7.757054262667463
20
-64.479934044838018
30
0
10
-8.40540428235607
20
-64.324672370958737
30
0
10
-9.0216411618836787
20
-64.110797148841641
30
0
10
-9.5529652876697178
20
-63.832261988834887
30
0
10
-10.008698140365681
20
-63.477544295992232
30
0
10
-10.428180060975354
20
-63.035379355045109
30
0
10
-10.85498358815472
20
-62.499773882437211
30
0
10
-11.307989023545996
20
-61.875531534702603
30
0
10
-11.755905335891724
20
-61.18313199966147
30
0
10
-12.141921125970455
20
-60.451794275833734
30
0
10
-12.406833096617886
20
-59.712982242978725
30
0
10
-12.511369369208708
20
-58.994020281022507
30
0
10
-12.462044157026497
20
-58.311098904082172
30
0
10
-12.326669843224565
20
-57.6641169160552
30
0
10
-12.19762240077271
20
-57.041046507448605
30
0
10
-12.161525606811672
20
-56.42097256472583
30
0
10
-12.267730853555626
20
-55.777561896074666
30
0
10
-12.493761348532438
20
-55.082303443994277
30
0
10
-12.766764400523014
20
-54.308690644194677
30
0
10
-12.988521360174447
20
-53.436895075757491
30
0
10
-13.060825530151901
20
-52.457485498167429
30
0
10
-12.906324129207826
20
-51.377517280937255
30
0
10
-12.502026186553408
20
-50.221460609445934
30
0
10
-11.891140186742803
20
-49.010955649080231
30
0
10
-11.156837576740264
20
-47.768638544534525
30
0
10
-10.407962874431284
20
-46.515058257743178
30
0
10
-9.7600639311214792
20
-45.26842792150272
30
0
10
-9.4068433653497259
20
-44.288202306411897
30
0
10
-9.2696356419087849
20
-43.566965583453126
30
0
10
-9.2391684261925775
20
-43.092811618701219
30
0
10
-9.2391858839542493
20
-42.857402358038918
30
0
0
SPLINE
5
150
100
AcDbEntity
8
0
100
AcDbSpline
70
4
71
5
72
21
73
15
74
0
42
0.000000001
43
0.0000000001
44
0.0000000001
40
0
40
0
40
0
40
0
40
0
40
0
40
0.10000000000000001
40
0.20000000000000001
40
0.30000000000000004
40
0.40000000000000002
40
0.5
40
0.59999999999999998
40
0.69999999999999996
40
0.79999999999999993
40
0.89999999999999991
40
1
40
1
40
1
40
1
40
1
40
1
41
1
41
1
41
1
41
1
41
1
41
1
41
1
41
1
41
1
41
1
41
1
41
1
41
1
41
1
41
1
10
-9.2391858839542547
20
-42.857402358038918
30
0
10
-9.2391858839542547
20
-41.955845153222114
30
0
10
-9.2380706518178073
20
-40.176817560196298
30
0
10
-9.2330559475713105
20
-37.580537180271321
30
0
10
-9.228070834138256
20
-34.268889654776423
30
0
10
-9.2729611052531045
20
-30.415683205901402
30
0
10
-9.4307749043760118
20
-26.899665432640841
30
0
10
-9.7638302680119828
20
-23.776441073280399
30
0
10
-10.318796563307174
20
-21.090484625190768
30
0
10
-11.111694007930177
20
-18.858624658716593
30
0
10
-12.098301777281053
20
-17.034493439841146
30
0
10
-12.978970889318735
20
-15.835442149038183
30
0
10
-13.657360692646311
20
-15.048705348514284
30
0
10
-14.112614426997014
20
-14.569368645539795
30
0
10
-14.340991536268401
20
-14.340991536268408
30
0
0
SPLINE
5
151
100
AcDbEntity
8
0
100
AcDbSpline
70
4
71
5
72
41
73
35
74
0
42
0.000000001
43
0.0000000001
44
0.0000000001
40
0
40
0
40
0
40
0
40
0
40
0
40
0.033333333333333333
40
0.066666666666666666
40
0.10000000000000001
40
0.13333333333333333
40
0.16666666666666666
40
0.19999999999999998
40
0.23333333333333331
40
0.26666666666666666
40
0.29999999999999999
40
0.33333333333333331
40
0.36666666666666664
40
0.39999999999999997
40
0.43333333333333329
40
0.46666666666666662
40
0.49999999999999994
40
0.53333333333333333
40
0.56666666666666665
40
0.59999999999999998
40
0.6333333333333333
40
0.66666666666666663
40
0.69999999999999996
40
0.73333333333333328
40
0.76666666666666661
40
0.79999999999999993
40
0.83333333333333326
40
0.86666666666666659
40
0.89999999999999991
40
0.93333333333333324
40
0.96666666666666656
40
1
40
1
40
1
40
1
40
1
40
1
41
1
41
1
41
1
41
1
41
1
41
1
41
1
41
1
41
1
41
1
41
1
41
1
41
1
41
1
41
1
41
1
41
1
41
1
41
1
41
1
41
1
41
1
41
1
41
1
41
1
41
1
41
1
41
1
41
1
41
1
41
1
41
1
41
1
41
1
41
1
10
-6.7391858839542493
20
-64.60524504277808
30
0
10
-6.6633951539326102
20
-64.602772997874467
30
0
10
-6.4960794389083478
20
-64.592063717050692
30
0
10
-6.1978975692911851
20
-64.558703585257334
30
0
10
-5.7213175052408536
20
-64.479934044837933
30
0
10
-5.0729674855523301
20
-64.324672370958666
30
0
10
-4.4567306060248333
20
-64.110797148841627
30
0
10
-3.9254064802388973
20
-63.832261988834887
30
0
10
-3.4696736275429449
20
-63.477544295992239
30
0
10
-3.05019170693325
20
-63.035379355045052
30
0
10
-2.6233881797537668
20
-62.499773882437196
30
0
10
-2.1703827443624233
20
-61.875531534702617
30
0
10
-1.7224664320166359
20
-61.18313199966147
30
0
10
-1.3364506419379416
20
-60.451794275833713
30
0
10
-1.0715386712905919
20
-59.712982242978711
30
0
10
-0.96700239869980509
20
-58.994020281022507
30
0
10
-1.0163276108820023
20
-58.311098904082208
30
0
10
-1.1517019246839231
20
-57.664116916055185
30
0
10
-1.280749367135769
20
-57.04104650744857
30
0
10
-1.3168461610968349
20
-56.420972564725822
30
0
10
-1.2106409143528669
20
-55.777561896074737
30
0
10
-0.9846104193760663
20
-55.082303443994405
30
0
10
-0.71160736738547448
20
-54.308690644194769
30
0
10
-0.48985040773404354
20
-53.436895075757526
30
0
10
-0.41754623775660404
20
-52.457485498167415
30
0
10
-0.57204763870067532
20
-51.377517280937262
30
0
10
-0.97634558135507432
20
-50.221460609445963
30
0
10
-1.5872315811656403
20
-49.010955649080252
30
0
10
-2.3215341911681389
20
-47.768638544534539
30
0
10
-3.0704088934770972
20
-46.515058257743185
30
0
10
-3.718307836786928
20
-45.268427921502727
30
0
10
-4.0715284025586973
20
-44.288202306411897
30
0
10
-4.2087361259996987
20
-43.566965583453126
30
0
10
-4.2392033417159194
20
-43.092811618701219
30
0
10
-4.2391858839542476
20
-42.857402358038918
30
0
0
SPLINE
5
152
100
AcDbEntity
8
0
100
AcDbSpline
70
4
71
5
72
21
73
15
74
0
42
0.000000001
43
0.0000000001
44
0.0000000001
40
0
40
0
40
0
40
0
40
0
40
0
40
0.10000000000000001
40
0.20000000000000001
40
0.30000000000000004
40
0.40000000000000002
40
0.5
40
0.59999999999999998
40
0.69999999999999996
40
0.79999999999999993
40
0.89999999999999991
40
1
40
1
40
1
40
1
40
1
40
1
41
1
41
1
41
1
41
1
41
1
41
1
41
1
41
1
41
1
41
1
41
1
41
1
41
1
41
1
41
1
10
-4.2391858839542547
20
-42.857402358038911
30
0
10
-4.2391858839542547
20
-42.190099528243572
30
0
10
-4.2297105277126512
20
-40.782707401572551
30
0
10
-4.1867966501836236
20
-38.453464087723852
30
0
10
-4.0874459964145879
20
-34.949026500391852
30
0
10
-3.9196153785367267
20
-30.160344523025966
30
0
10
-3.7052967613110157
20
-25.326669189727809
30
0
10
-3.2626147738513662
20
-20.959646981262573
30
0
10
-2.3633083929674834
20
-17.574780462550873
30
0
10
-0.17885885868683021
20
-16.000720519504608
30
0
10
3.2262612140162195
20
-16.305419112383873
30
0
10
6.1320158178445752
20
-17.538272437469988
30
0
10
7.9522014793423228
20
-18.704146816945045
30
0
10
8.9282241879348838
20
-19.534825906662231
30
0
10
9.3570139483751422
20
-19.963615667098434
30
0
0
CIRCLE
5
153
100
AcDbEntity
8
0
100
AcDbCircle
10
-3.5572053686148153
20
-52.675421842699478
30
0
40
1.05
210
0
220
0
230
1
0
CIRCLE
5
154
100
AcDbEntity
8
0
100
AcDbCircle
10
-6.7391858839542547
20
-55.857402358038911
30
0
40
2.2500000000000004
210
0
220
-0
230
1
0
CIRCLE
5
155
100
AcDbEntity
8
0
100
AcDbCircle
10
-9.9211663992936945
20
-52.675421842699478
30
0
40
1.05
210
0
220
-0
230
1
0
CIRCLE
5
156
100
AcDbEntity
8
0
100
AcDbCircle
10
-9.9211663992936945
20
-59.039382873378358
30
0
40
1.05
210
0
220
0
230
1
0
CIRCLE
5
157
100
AcDbEntity
8
0
100
AcDbCircle
10
-3.5572053686148064
20
-59.039382873378358
30
0
40
1.05
210
0
220
0
230
1
0
SPLINE
5
158
100
AcDbEntity
8
0
100
AcDbSpline
70
4
71
5
72
26
73
20
74
0
42
0.000000001
43
0.0000000001
44
0.0000000001
40
0
40
0
40
0
40
0
40
0
40
0
40
0.066666666666666666
40
0.13333333333333333
40
0.20000000000000001
40
0.26666666666666666
40
0.33333333333333331
40
0.39999999999999997
40
0.46666666666666662
40
0.53333333333333333
40
0.59999999999999998
40
0.66666666666666663
40
0.73333333333333328
40
0.79999999999999993
40
0.86666666666666659
40
0.93333333333333324
40
1
40
1
40
1
40
1
40
1
40
1
41
1
41
1
41
1
41
1
41
1
41
1
41
1
41
1
41
1
41
1
41
1
41
1
41
1
41
1
41
1
41
1
41
1
41
1
41
1
41
1
10
-6.7391858839542511
20
-60.981148008951003
30
0
10
-6.592355694728588
20
-60.981148008951003
30
0
10
-6.2989766917980319
20
-60.979567002702275
30
0
10
-5.859734712007266
20
-60.972433965103015
30
0
10
-5.2889258378969615
20
-60.962328190326161
30
0
10
-4.6688833182825711
20
-60.992508011304913
30
0
10
-4.2219454712783824
20
-61.112928779176173
30
0
10
-4.0049777371706892
20
-61.347657319108286
30
0
10
-4.0371869463797321
20
-61.689930325443612
30
0
10
-4.2359433923756615
20
-62.044481076044498
30
0
10
-4.5253896188282257
20
-62.349692149745749
30
0
10
-4.8556446978229264
20
-62.585612421187079
30
0
10
-5.1914550964874326
20
-62.752805556180853
30
0
10
-5.514414907726934
20
-62.865846230990563
30
0
10
-5.8204308069634312
20
-62.939833360266952
30
0
10
-6.1172443569136412
20
-62.985386416004474
30
0
10
-6.3575109395188987
20
-63.005039095006758
30
0
10
-6.5448608812869775
20
-63.012207648506902
30
0
10
-6.6737464401649014
20
-63.013800936428737
30
0
10
-6.7391858839542511
20
-63.013800936428737
30
0
0
SPLINE
5
159
100
AcDbEntity
8
0
100
AcDbSpline
70
4
71
5
72
26
73
20
74
0
42
0.000000001
43
0.0000000001
44
0.0000000001
40
0
40
0
40
0
40
0
40
0
40
0
40
0.066666666666666666
40
0.13333333333333333
40
0.20000000000000001
40
0.26666666666666666
40
0.33333333333333331
40
0.39999999999999997
40
0.46666666666666662
40
0.53333333333333333
40
0.59999999999999998
40
0.66666666666666663
40
0.73333333333333328
40
0.79999999999999993
40
0.86666666666666659
40
0.93333333333333324
40
1
40
1
40
1
40
1
40
1
40
1
41
1
41
1
41
1
41
1
41
1
41
1
41
1
41
1
41
1
41
1
41
1
41
1
41
1
41
1
41
1
41
1
41
1
41
1
41
1
41
1
10
-6.7391858839542511
20
-60.981148008951003
30
0
10
-6.8860160731799134
20
-60.981148008951003
30
0
10
-7.1793950761104695
20
-60.979567002702275
30
0
10
-7.6186370559012353
20
-60.972433965103015
30
0
10
-8.189445930011539
20
-60.962328190326161
30
0
10
-8.8094884496259311
20
-60.992508011304913
30
0
10
-9.256426296630119
20
-61.112928779176173
30
0
10
-9.4733940307378113
20
-61.347657319108286
30
0
10
-9.4411848215287684
20
-61.689930325443612
30
0
10
-9.2424283755328389
20
-62.044481076044498
30
0
10
-8.9529821490802757
20
-62.349692149745749
30
0
10
-8.622727070085574
20
-62.585612421187079
30
0
10
-8.2869166714210678
20
-62.752805556180853
30
0
10
-7.9639568601815656
20
-62.865846230990563
30
0
10
-7.6579409609450693
20
-62.939833360266952
30
0
10
-7.3611274109948592
20
-62.985386416004474
30
0
10
-7.1208608283896009
20
-63.005039095006758
30
0
10
-6.933510886621522
20
-63.012207648506902
30
0
10
-6.8046253277435991
20
-63.013800936428737
30
0
10
-6.7391858839542493
20
-63.013800936428737
30
0
0
LWPOLYLINE
5
160
100
AcDbEntity
8
0
100
AcDbPolyline
90
8
70
1
43
0.0
10
10.770101012677681
20
-3.699033200812194
42
0.4142135623730942
10
8.6487806691180378
20
-3.6990332008122024
10
3.6990332008122162
20
-8.6487806691180413
42
0.41421356237309492
10
3.6990332008122193
20
-10.770101012677685
10
6.5274603255584065
20
-13.598528137423871
42
0.41421356237309459
10
8.6487806691180538
20
-13.598528137423866
10
13.598528137423882
20
-8.6487806691180342
42
0.4142135623730952
10
13.598528137423882
20
-6.5274603255583896
0
SPLINE
5
161
100
AcDbEntity
8
0
100
AcDbSpline
70
4
71
5
72
41
73
35
74
0
42
0.000000001
43
0.0000000001
44
0.0000000001
40
0
40
0
40
0
40
0
40
0
40
0
40
0.033333333333333333
40
0.066666666666666666
40
0.10000000000000001
40
0.13333333333333333
40
0.16666666666666666
40
0.19999999999999998
40
0.23333333333333331
40
0.26666666666666666
40
0.29999999999999999
40
0.33333333333333331
40
0.36666666666666664
40
0.39999999999999997
40
0.43333333333333329
40
0.46666666666666662
40
0.49999999999999994
40
0.53333333333333333
40
0.56666666666666665
40
0.59999999999999998
40
0.6333333333333333
40
0.66666666666666663
40
0.69999999999999996
40
0.73333333333333328
40
0.76666666666666661
40
0.79999999999999993
40
0.83333333333333326
40
0.86666666666666659
40
0.89999999999999991
40
0.93333333333333324
40
0.96666666666666656
40
1
40
1
40
1
40
1
40
1
40
1
41
1
41
1
41
1
41
1
41
1
41
1
41
1
41
1
41
1
41
1
41
1
41
1
41
1
41
1
41
1
41
1
41
1
41
1
41
1
41
1
41
1
41
1
41
1
41
1
41
1
41
1
41
1
41
1
41
1
41
1
41
1
41
1
41
1
41
1
41
1
10
-65.329801798149091
20
-7.7140013547822326
30
0
10
-65.32730232330762
20
-7.790633062656882
30
0
10
-65.31643210847929
20
-7.9599998747044864
30
0
10
-65.2825121390768
20
-8.2623685105337792
30
0
10
-65.202305431889513
20
-8.7459801547629468
30
0
10
-65.043777087524603
20
-9.4022162170813655
30
0
10
-64.824798621690206
20
-10.022505053175463
30
0
10
-64.538943923996655
20
-10.554594903369534
30
0
10
-64.1746360201724
20
-11.011192361367456
30
0
10
-63.721021941996867
20
-11.434331767369013
30
0
10
-63.172803962079996
20
-11.868902744264933
30
0
10
-62.536042564451165
20
-12.330300648195156
30
0
10
-61.832153078441451
20
-12.781363918302382
30
0
10
-61.09065710111841
20
-13.16101428966234
30
0
10
-60.342996209640035
20
-13.408625234776823
30
0
10
-59.616345032874747
20
-13.4875106988793
30
0
10
-58.926532674711318
20
-13.414817423503205
30
0
10
-58.274149811649501
20
-13.269660968612644
30
0
10
-57.647939220065929
20
-13.150549080361342
30
0
10
-57.026709900988052
20
-13.144307619181744
30
0
10
-56.381542811775404
20
-13.28829207703712
30
0
10
-55.678362086567468
20
-13.541135975627236
30
0
10
-54.884020874656173
20
-13.815487417189923
30
0
10
-53.973281750135065
20
-14.006269827050497
30
0
10
-52.933065441627328
20
-14.018858737778373
30
0
10
-51.773647838863837
20
-13.800970514140614
30
0
10
-50.521429953801444
20
-13.36320684128423
30
0
10
-49.202631341361432
20
-12.756122499721441
30
0
10
-47.846294463943899
20
-12.060010258053762
30
0
10
-46.480193630505696
20
-11.370268409060715
30
0
10
-45.129759124343593
20
-10.784814169679937
30
0
10
-44.078504786017561
20
-10.469498309739084
30
0
10
-43.312783378573492
20
-10.347452073762655
30
0
10
-42.813119268727334
20
-10.320354978629243
30
0
10
-42.56599152250373
20
-10.32037330542439
30
0
0
SPLINE
5
162
100
AcDbEntity
8
0
100
AcDbSpline
70
4
71
5
72
21
73
15
74
0
42
0.000000001
43
0.0000000001
44
0.0000000001
40
0
40
0
40
0
40
0
40
0
40
0
40
0.10000000000000001
40
0.20000000000000001
40
0.30000000000000004
40
0.40000000000000002
40
0.5
40
0.59999999999999998
40
0.69999999999999996
40
0.79999999999999993
40
0.89999999999999991
40
1
40
1
40
1
40
1
40
1
40
1
41
1
41
1
41
1
41
1
41
1
41
1
41
1
41
1
41
1
41
1
41
1
41
1
41
1
41
1
41
1
10
-42.565991522503722
20
-10.32037330542439
30
0
10
-41.684931446296289
20
-10.298410180854345
30
0
10
-39.944056874457623
20
-10.247124114566041
30
0
10
-37.396482859290742
20
-10.148121906785931
30
0
10
-34.133711409011696
20
-9.9851435189377344
30
0
10
-30.320107075650895
20
-9.804737015371078
30
0
10
-26.828706313297658
20
-9.7427404305191061
30
0
10
-23.721562042111696
20
-9.8943200668976061
30
0
10
-21.048458036166657
20
-10.330715184846825
30
0
10
-18.829319091169221
20
-11.077067212418088
30
0
10
-17.017610330131934
20
-12.070220555432083
30
0
10
-15.827137584991268
20
-12.970931524805263
30
0
10
-15.045272519377441
20
-13.657822267858691
30
0
10
-14.568361481918682
20
-14.113621590618131
30
0
10
-14.340991536268401
20
-14.340991536268408
30
0
0
SPLINE
5
163
100
AcDbEntity
8
0
100
AcDbSpline
70
4
71
5
72
41
73
35
74
0
42
0.000000001
43
0.0000000001
44
0.0000000001
40
0
40
0
40
0
40
0
40
0
40
0
40
0.033333333333333333
40
0.066666666666666666
40
0.10000000000000001
40
0.13333333333333333
40
0.16666666666666666
40
0.19999999999999998
40
0.23333333333333331
40
0.26666666666666666
40
0.29999999999999999
40
0.33333333333333331
40
0.36666666666666664
40
0.39999999999999997
40
0.43333333333333329
40
0.46666666666666662
40
0.49999999999999994
40
0.53333333333333333
40
0.56666666666666665
40
0.59999999999999998
40
0.6333333333333333
40
0.66666666666666663
40
0.69999999999999996
40
0.73333333333333328
40
0.76666666666666661
40
0.79999999999999993
40
0.83333333333333326
40
0.86666666666666659
40
0.89999999999999991
40
0.93333333333333324
40
0.96666666666666656
40
1
40
1
40
1
40
1
40
1
40
1
41
1
41
1
41
1
41
1
41
1
41
1
41
1
41
1
41
1
41
1
41
1
41
1
41
1
41
1
41
1
41
1
41
1
41
1
41
1
41
1
41
1
41
1
41
1
41
1
41
1
41
1
41
1
41
1
41
1
41
1
41
1
41
1
41
1
41
1
41
1
10
-65.329801798149091
20
-7.7140013547822326
30
0
10
-65.327320867852322
20
-7.6379382063938426
30
0
10
-65.316546221807926
20
-7.4699402376088262
30
0
10
-65.282945157274924
20
-7.1703218501962231
30
0
10
-65.203592081087393
20
-6.6913023136859824
30
0
10
-65.047241057394146
20
-6.0403405376922814
30
0
10
-64.831939083284738
20
-5.4230669149312938
30
0
10
-64.551484915921705
20
-4.8920846636954627
30
0
10
-64.194040225247335
20
-4.4365879514563709
30
0
10
-63.748124633943782
20
-4.0158904460501219
30
0
10
-63.207743598083312
20
-3.5856700829645876
30
0
10
-62.578206326408363
20
-3.1282430856116039
30
0
10
-61.880885824875669
20
-2.6775819059285149
30
0
10
-61.145828769358623
20
-2.2928794735007076
30
0
10
-60.405047716342679
20
-2.0346098480964288
30
0
10
-59.685914404127125
20
-1.9414383796174819
30
0
10
-59.003741296245202
20
-2.0025569023330543
30
0
10
-58.356946351717568
20
-2.1441680464263433
30
0
10
-57.732120223171286
20
-2.2695941658484924
30
0
10
-57.107453954221292
20
-2.2909223806100556
30
0
10
-56.456729122094053
20
-2.1636417069002092
30
0
10
-55.753036129911983
20
-1.9211663432713251
30
0
10
-54.971609932683648
20
-1.6463791356169897
30
0
10
-54.092599607572616
20
-1.441354258200684
30
0
10
-53.103946718874084
20
-1.3991955379833951
30
0
10
-52.004208413446818
20
-1.5722155920677816
30
0
10
-50.805746718798233
20
-1.9479521242088225
30
0
10
-49.530982067663786
20
-2.4802103570396756
30
0
10
-48.208766535750343
20
-3.095723908485446
30
0
10
-46.870818369312047
20
-3.7082254712817915
30
0
10
-45.548171510840056
20
-4.2292888471466759
30
0
10
-44.523736040798966
20
-4.5102672472480085
30
0
10
-43.78290272051278
20
-4.6190510460906928
30
0
10
-43.302241403637176
20
-4.6432019731084031
30
0
10
-43.065217650209043
20
-4.6431843956172445
30
0
0
SPLINE
5
164
100
AcDbEntity
8
0
100
AcDbSpline
70
4
71
5
72
16
73
10
74
0
42
0.000000001
43
0.0000000001
44
0.0000000001
40
0
40
0
40
0
40
0
40
0
40
0
40
0.20000000000000001
40
0.40000000000000002
40
0.60000000000000009
40
0.80000000000000004
40
1
40
1
40
1
40
1
40
1
40
1
41
1
41
1
41
1
41
1
41
1
41
1
41
1
41
1
41
1
41
1
10
-23.316713526300443
20
11.250517708010017
30
0
10
-23.287601858320532
20
11.221406040030107
30
0
10
-23.236905277486933
20
11.140028907130493
30
0
10
-23.183417762910313
20
10.948569420527171
30
0
10
-23.148745630602519
20
10.578076809574293
30
0
10
-23.130160302225406
20
10.018483228363388
30
0
10
-23.104057965972729
20
9.5695544121380767
30
0
10
-23.062716913657511
20
9.2669228041515179
30
0
10
-23.022943483444021
20
9.0855700733810085
30
0
10
-23.0000003427267
20
9.0000001341104614
30
0
0
LINE
5
165
100
AcDbEntity
8
0
100
AcDbLine
10
-29.187767452785913
20
17.121571634495446
30
0
11
-23.316713526300443
21
11.250517708010017
31
0
0
LINE
5
166
100
AcDbEntity
8
0
100
AcDbLine
10
-29.0134559672906
20
19.113961030678944
30
0
11
-29.187767452785913
21
17.121571634495446
31
0
0
LINE
5
167
100
AcDbEntity
8
0
100
AcDbLine
10
-29.0134559672906
20
19.113961030678944
30
0
11
-19.113961030678929
21
29.013455967290614
31
0
0
SPLINE
5
168
100
AcDbEntity
8
0
100
AcDbSpline
70
4
71
5
72
21
73
15
74
0
42
0.000000001
43
0.0000000001
44
0.0000000001
40
0
40
0
40
0
40
0
40
0
40
0
40
0.10000000000000001
40
0.20000000000000001
40
0.30000000000000004
40
0.40000000000000002
40
0.5
40
0.59999999999999998
40
0.69999999999999996
40
0.79999999999999993
40
0.89999999999999991
40
1
40
1
40
1
40
1
40
1
40
1
41
1
41
1
41
1
41
1
41
1
41
1
41
1
41
1
41
1
41
1
41
1
41
1
41
1
41
1
41
1
10
-43.065217650209043
20
-4.6431843956172481
30
0
10
-42.269693189643846
20
-4.6723492900011596
30
0
10
-40.694576983665769
20
-4.7118313340745281
30
0
10
-38.37992373031237
20
-4.71443221294121
30
0
10
-35.363274129453444
20
-4.615992657623214
30
0
10
-31.633401998023324
20
-4.3554345598968087
30
0
10
-27.92485638670826
20
-3.9642167115215772
30
0
10
-24.447914982256997
20
-3.3554731118594505
30
0
10
-21.586702883618546
20
-2.365098715602671
30
0
10
-20.445784634987891
20
-0.55065398243790731
30
0
10
-20.895108393553063
20
2.1027229360753665
30
0
10
-21.864119239621314
20
4.7106633516144782
30
0
10
-22.518548375008702
20
6.8153465828299398
30
0
10
-22.855980133681093
20
8.2641615076278381
30
0
10
-23.0000003427267
20
9.0000001341104614
30
0
0
CIRCLE
5
169
100
AcDbEntity
8
0
100
AcDbCircle
10
-53.399978598070483
20
-4.5320208394427697
30
0
40
1.05
210
0
220
0
230
1
0
CIRCLE
5
170
100
AcDbEntity
8
0
100
AcDbCircle
10
-56.58195911340993
20
-7.7140013547822184
30
0
40
2.2500000000000004
210
0
220
-0
230
1
0
CIRCLE
5
171
100
AcDbEntity
8
0
100
AcDbCircle
10
-59.763939628749362
20
-4.5320208394427697
30
0
40
1.05
210
0
220
0
230
1
0
CIRCLE
5
172
100
AcDbEntity
8
0
100
AcDbCircle
10
-53.39997859807049
20
-10.895981870121648
30
0
40
1.05
210
0
220
-0
230
1
0
CIRCLE
5
173
100
AcDbEntity
8
0
100
AcDbCircle
10
-59.76393962874937
20
-10.895981870121666
30
0
40
1.05
210
0
220
0
230
1
0
SPLINE
5
174
100
AcDbEntity
8
0
100
AcDbSpline
70
4
71
5
72
26
73
20
74
0
42
0.000000001
43
0.0000000001
44
0.0000000001
40
0
40
0
40
0
40
0
40
0
40
0
40
0.066666666666666666
40
0.13333333333333333
40
0.20000000000000001
40
0.26666666666666666
40
0.33333333333333331
40
0.39999999999999997
40
0.46666666666666662
40
0.53333333333333333
40
0.59999999999999998
40
0.66666666666666663
40
0.73333333333333328
40
0.79999999999999993
40
0.86666666666666659
40
0.93333333333333324
40
1
40
1
40
1
40
1
40
1
40
1
41
1
41
1
41
1
41
1
41
1
41
1
41
1
41
1
41
1
41
1
41
1
41
1
41
1
41
1
41
1
41
1
41
1
41
1
41
1
41
1
10
-61.705704764322007
20
-7.7140013547822406
30
0
10
-61.705704764322007
20
-7.8608315440079037
30
0
10
-61.704123758073337
20
-8.1542105469384616
30
0
10
-61.696990720474503
20
-8.5934525267291999
30
0
10
-61.686884945697983
20
-9.1642614008395
30
0
10
-61.717064766676735
20
-9.7843039204538975
30
0
10
-61.837485534547653
20
-10.23124176745811
30
0
10
-62.072214074479277
20
-10.448209501565778
30
0
10
-62.414487080814538
20
-10.416000292356733
30
0
10
-62.769037831415687
20
-10.217243846360812
30
0
10
-63.07424890511718
20
-9.9277976199082492
30
0
10
-63.31016917655856
20
-9.5975425409135546
30
0
10
-63.477362311552085
20
-9.2617321422490377
30
0
10
-63.590402986361383
20
-8.9387723310095488
30
0
10
-63.664390115637566
20
-8.6327564317730747
30
0
10
-63.70994317137523
20
-8.3359428818228896
30
0
10
-63.729595850377677
20
-8.0956762992176188
30
0
10
-63.736764403877906
20
-7.9083263574495168
30
0
10
-63.738357691799749
20
-7.7794407985715894
30
0
10
-63.738357691799749
20
-7.7140013547822415
30
0
0
SPLINE
5
175
100
AcDbEntity
8
0
100
AcDbSpline
70
4
71
5
72
26
73
20
74
0
42
0.000000001
43
0.0000000001
44
0.0000000001
40
0
40
0
40
0
40
0
40
0
40
0
40
0.066666666666666666
40
0.13333333333333333
40
0.20000000000000001
40
0.26666666666666666
40
0.33333333333333331
40
0.39999999999999997
40
0.46666666666666662
40
0.53333333333333333
40
0.59999999999999998
40
0.66666666666666663
40
0.73333333333333328
40
0.79999999999999993
40
0.86666666666666659
40
0.93333333333333324
40
1
40
1
40
1
40
1
40
1
40
1
41
1
41
1
41
1
41
1
41
1
41
1
41
1
41
1
41
1
41
1
41
1
41
1
41
1
41
1
41
1
41
1
41
1
41
1
41
1
41
1
10
-61.705704764322007
20
-7.7140013547822406
30
0
10
-61.705704764322007
20
-7.5671711655565774
30
0
10
-61.704123758073337
20
-7.2737921626259769
30
0
10
-61.69699072047451
20
-6.834550182835005
30
0
10
-61.686884945697955
20
-6.2637413087245388
30
0
10
-61.717064766676714
20
-5.6436987891101236
30
0
10
-61.837485534547625
20
-5.19676094210614
30
0
10
-62.072214074479312
20
-4.9797932079986866
30
0
10
-62.414487080814574
20
-5.0120024172077349
30
0
10
-62.76903783141573
20
-5.2107588632035871
30
0
10
-63.074248905117152
20
-5.5002050896561228
30
0
10
-63.310169176558475
20
-5.8304601686508537
30
0
10
-63.477362311552
20
-6.1662705673154079
30
0
10
-63.590402986361426
20
-6.4892303785549323
30
0
10
-63.664390115637715
20
-6.7952462777914322
30
0
10
-63.709943171375308
20
-7.0920598277416147
30
0
10
-63.729595850377692
20
-7.3323264103468748
30
0
10
-63.736764403877906
20
-7.5196763521149625
30
0
10
-63.738357691799749
20
-7.6485619109928926
30
0
10
-63.738357691799749
20
-7.7140013547822415
30
0
0
ENDSEC
0
SECTION
2
OBJECTS
0
DICTIONARY
5
C
100
AcDbDictionary
3
ACAD_GROUP
350
D
3
ACAD_MLINESTYLE
350
17
0
DICTIONARY
5
D
100
AcDbDictionary
0
DICTIONARY
5
1A
330
C
100
AcDbDictionary
0
DICTIONARY
5
17
100
AcDbDictionary
0
ENDSEC
0
EOF
