0
SECTION
2
HEADER
9
$INSUNITS
70
4
9
$ACADVER
1
AC1014
9
$HANDSEED
5
FFFF
0
ENDSEC
0
SECTION
2
TABLES
0
TABLE
2
VPORT
5
8
100
AcDbSymbolTable
0
ENDTAB
0
TABLE
2
LTYPE
5
5
100
AcDbSymbolTable
0
LTYPE
5
14
100
AcDbSymbolTableRecord
100
AcDbLinetypeTableRecord
2
BYBLOCK
70
0
0
LTYPE
5
15
100
AcDbSymbolTableRecord
100
AcDbLinetypeTableRecord
2
BYLAYER
70
0
0
LTYPE
5
16
100
AcDbSymbolTableRecord
100
AcDbLinetypeTableRecord
2
DASHED
70
0
3
Dashed __ __ __ __ __ __ __ __ __ __ __ __ __ _
72
65
73
2
40
0.75
49
0.5
74
0
49
-0.25
74
0
0
ENDTAB
0
TABLE
2
LAYER
5
2
100
AcDbSymbolTable
70
2
0
LAYER
5
50
100
AcDbSymbolTableRecord
100
AcDbLayerTableRecord
2
0
70
0
62
7
6
CONTINUOUS
0
ENDTAB
0
TABLE
2
STYLE
5
3
100
AcDbSymbolTable
70
1
0
STYLE
5
11
100
AcDbSymbolTableRecord
100
AcDbTextStyleTableRecord
2
STANDARD
70
0
0
ENDTAB
0
TABLE
2
VIEW
5
6
100
AcDbSymbolTable
70
0
0
ENDTAB
0
TABLE
2
UCS
5
7
100
AcDbSymbolTable
70
0
0
ENDTAB
0
TABLE
2
APPID
5
9
100
AcDbSymbolTable
70
2
0
APPID
5
12
100
AcDbSymbolTableRecord
100
AcDbRegAppTableRecord
2
ACAD
70
0
0
ENDTAB
0
TABLE
2
DIMSTYLE
5
A
100
AcDbSymbolTable
70
1
0
ENDTAB
0
TABLE
2
BLOCK_RECORD
5
1
100
AcDbSymbolTable
70
1
0
BLOCK_RECORD
5
1F
100
AcDbSymbolTableRecord
100
AcDbBlockTableRecord
2
*MODEL_SPACE
0
BLOCK_RECORD
5
1B
100
AcDbSymbolTableRecord
100
AcDbBlockTableRecord
2
*PAPER_SPACE
0
ENDTAB
0
ENDSEC
0
SECTION
2
BLOCKS
0
BLOCK
5
20
100
AcDbEntity
100
AcDbBlockBegin
2
*MODEL_SPACE
0
ENDBLK
5
21
100
AcDbEntity
100
AcDbBlockEnd
0
BLOCK
5
1C
100
AcDbEntity
100
AcDbBlockBegin
2
*PAPER_SPACE
0
ENDBLK
5
1D
100
AcDbEntity
100
AcDbBlockEnd
0
ENDSEC
0
SECTION
2
ENTITIES
0
CIRCLE
5
100
100
AcDbEntity
8
0
100
AcDbCircle
10
16.285533905751887
20
-23.356601718047724
30
0
40
1.0000000000000009
210
0
220
0
230
1
0
CIRCLE
5
101
100
AcDbEntity
8
0
100
AcDbCircle
10
23.356601718047742
20
-16.28553390575188
30
0
40
1.0000000000000009
210
0
220
0
230
1
0
CIRCLE
5
102
100
AcDbEntity
8
0
100
AcDbCircle
10
-20.351397897755387
20
9.391242789363913
30
0
40
1.0499999999999998
210
0
220
0
230
1
0
CIRCLE
5
103
100
AcDbEntity
8
0
100
AcDbCircle
10
-9.3912427893639041
20
20.351397897755405
30
0
40
1.0499999999999998
210
0
220
0
230
1
0
LINE
5
104
100
AcDbEntity
8
0
100
AcDbLine
10
-11.512563132923557
20
22.472718241315039
30
0
11
-22.472718241315039
21
11.512563132923548
31
0
0
LINE
5
105
100
AcDbEntity
8
0
100
AcDbLine
10
25.106571654176442
20
-18.071191626105456
30
0
11
25.128522911568311
21
-18.049136832703464
31
0
6
DASHED
0
ARC
5
106
100
AcDbEntity
8
0
100
AcDbCircle
10
-20.351397897755387
20
9.391242789363913
30
0
40
3.0000000000000009
210
0
220
0
230
1
100
AcDbArc
50
135.00000000000026
51
319.78019183949903
0
ARC
5
107
100
AcDbEntity
8
0
100
AcDbCircle
10
-9.3912427893639041
20
20.351397897755405
30
0
40
3.0000000000090461
210
0
220
0
230
1
100
AcDbArc
50
-49.780191841357698
51
135.00000000000026
0
ARC
5
108
100
AcDbEntity
8
0
100
AcDbCircle
10
23.356601718047742
20
-16.28553390575188
30
0
40
2.499999999999909
210
0
220
0
230
1
100
AcDbArc
50
-44.865196595577125
51
45.000000000000227
0
ARC
5
109
100
AcDbEntity
8
0
100
AcDbCircle
10
16.285533905751887
20
-23.356601718047724
30
0
40
2.5000000000648774
210
0
220
0
230
1
100
AcDbArc
50
225.00000000000028
51
314.99999999999784
0
LINE
5
110
100
AcDbEntity
8
0
100
AcDbLine
10
-8.5000002157239827
20
-12.500000215723979
30
0
11
0.23654424762110574
21
-12.500000215723979
31
0
0
LINE
5
111
100
AcDbEntity
8
0
100
AcDbLine
10
12.50000004239018
20
-0.2365440746694247
30
0
11
12.500000042390182
21
8.5000000423901678
31
0
0
LINE
5
112
100
AcDbEntity
8
0
100
AcDbLine
10
8.500000042390182
20
12.500000042390171
30
0
11
-0.23654407466955402
21
12.500000042390173
31
0
0
LINE
5
113
100
AcDbEntity
8
0
100
AcDbLine
10
-12.500000215723979
20
0.23654424781288419
30
0
11
-12.500000215723979
21
-8.5000002157239773
31
0
0
ARC
5
114
100
AcDbEntity
8
0
100
AcDbCircle
10
-8.5000002157239827
20
-8.5000002157239791
30
0
40
3.9999999999999969
210
0
220
0
230
1
100
AcDbArc
50
180
51
270
0
ARC
5
115
100
AcDbEntity
8
0
100
AcDbCircle
10
8.5000000423901803
20
8.5000000423901696
30
0
40
4.0000000000000018
210
0
220
0
230
1
100
AcDbArc
50
0
51
89.999999999999972
0
LINE
5
116
100
AcDbEntity
8
0
100
AcDbLine
10
25.124368671014039
20
-14.517766952785568
30
0
11
13.671572917643996
21
-3.0649711994156092
31
0
0
LINE
5
117
100
AcDbEntity
8
0
100
AcDbLine
10
-3.0649711994157225
20
13.671572917643967
30
0
11
-7.454077668760184
21
18.06067938698839
31
0
0
LINE
5
118
100
AcDbEntity
8
0
100
AcDbLine
10
14.517766952739652
20
-25.124368671059976
30
0
11
3.0649713723672982
21
-13.671573090977782
31
0
0
LINE
5
119
100
AcDbEntity
8
0
100
AcDbLine
10
-13.671573090961584
20
3.0649713725428773
30
0
11
-18.060679387071175
21
7.4540776687027659
31
0
0
ARC
5
120
100
AcDbEntity
8
0
100
AcDbCircle
10
-16.500000215723993
20
0.2365442478128853
30
0
40
4.0000000000000142
210
-0
220
0
230
1
100
AcDbArc
50
0
51
44.999999999671651
0
ARC
5
121
100
AcDbEntity
8
0
100
AcDbCircle
10
-0.23654407466955291
20
16.500000042390155
30
0
40
3.9999999999999849
210
0
220
0
230
1
100
AcDbArc
50
225.00000000000017
51
270
0
ARC
5
122
100
AcDbEntity
8
0
100
AcDbCircle
10
16.500000042390155
20
-0.23654407466942606
30
0
40
3.9999999999999747
210
0
220
0
230
1
100
AcDbArc
50
180
51
225.00000000000023
0
ARC
5
123
100
AcDbEntity
8
0
100
AcDbCircle
10
0.23654424762110463
20
-16.500000215724
30
0
40
4.0000000000000222
210
0
220
-0
230
1
100
AcDbArc
50
45.000000000000249
51
89.999999999999986
0
LINE
5
124
100
AcDbEntity
8
0
100
AcDbLine
10
18.053300858909097
20
-25.124368671205065
30
0
11
18.075297237420408
21
-25.102372292403622
31
0
0
ARC
5
125
100
AcDbEntity
8
0
100
AcDbCircle
10
21.493395455199295
20
-21.493426741768968
30
0
40
3.003011557261491
210
0
220
-0
230
1
100
AcDbArc
50
70.452365839815585
51
199.54678997334372
0
ARC
5
126
100
AcDbEntity
8
0
100
AcDbCircle
10
23.334650460655837
20
-16.307588699153815
30
0
40
2.4999999999999813
210
0
220
0
230
1
100
AcDbArc
50
250.45236583981693
51
315.13480340442254
0
ARC
5
127
100
AcDbEntity
8
0
100
AcDbCircle
10
16.307530284645001
20
-23.334605339628091
30
0
40
2.4999999997300253
210
0
220
0
230
1
100
AcDbArc
50
-45.000000000001982
51
19.546789973343941
0
LINE
5
128
100
AcDbEntity
8
0
100
AcDbLine
10
25.106571654176442
20
-18.071191626105456
30
0
11
25.128522911568311
21
-18.049136832703464
31
0
0
LWPOLYLINE
5
129
100
AcDbEntity
8
0
100
AcDbPolyline
90
4
70
1
43
0.0
10
-7.7781745930518928
20
-1.4142135623732079
10
-1.4142135623730807
20
-7.7781745930520572
42
-0.99999999999999989
10
-3.1819805153394567
20
-9.5459415460184225
10
-9.5459415460184633
20
-3.1819805153393768
42
-0.99999999999999989
0
LWPOLYLINE
5
130
100
AcDbEntity
8
0
100
AcDbPolyline
90
4
70
1
43
0.0
10
3.1819805153397778
20
9.5459415460180992
10
9.5459415460184402
20
3.1819805153394021
42
-0.99999999999999989
10
7.7781745930520652
20
1.414213562373039
10
1.4142135623729013
20
7.7781745930522286
42
-0.99999999999999989
0
CIRCLE
5
131
100
AcDbEntity
8
0
100
AcDbCircle
10
16.285533905751887
20
-23.356601718047724
30
0
40
2.0000000000000009
210
0
220
0
230
1
6
DASHED
0
CIRCLE
5
132
100
AcDbEntity
8
0
100
AcDbCircle
10
23.356601718047742
20
-16.28553390575188
30
0
40
2.0000000000000009
210
0
220
0
230
1
6
DASHED
0
CIRCLE
5
133
100
AcDbEntity
8
0
100
AcDbCircle
10
-20.351397897755387
20
9.391242789363913
30
0
40
2.0499999999999998
210
0
220
0
230
1
6
DASHED
0
CIRCLE
5
134
100
AcDbEntity
8
0
100
AcDbCircle
10
-9.3912427893639148
20
20.351397897755405
30
0
40
1.0499999999999998
210
0
220
-0
230
1
0
CIRCLE
5
135
100
AcDbEntity
8
0
100
AcDbCircle
10
-9.3912427893639148
20
20.351397897755405
30
0
40
2.0499999999999998
210
0
220
-0
230
1
6
DASHED
0
ENDSEC
0
SECTION
2
OBJECTS
0
DICTIONARY
5
C
100
AcDbDictionary
3
ACAD_GROUP
350
D
3
ACAD_MLINESTYLE
350
17
0
DICTIONARY
5
D
100
AcDbDictionary
0
DICTIONARY
5
1A
330
C
100
AcDbDictionary
0
DICTIONARY
5
17
100
AcDbDictionary
0
ENDSEC
0
EOF
